<svg preserveAspectRatio="none" width="100%" height="100%" overflow="visible" style="display: block;" viewBox="0 0 21.25 25" fill="none" xmlns="http://www.w3.org/2000/svg">
<g id="Container">
<path id="Icon" d="M11.25 25L10.9375 21.25H10.625C7.66667 21.25 5.15625 20.2188 3.09375 18.1562C1.03125 16.0938 0 13.5833 0 10.625C0 7.66667 1.03125 5.15625 3.09375 3.09375C5.15625 1.03125 7.66667 0 10.625 0C12.1042 0 13.4844 0.276042 14.7656 0.828125C16.0469 1.38021 17.1719 2.14062 18.1406 3.10938C19.1094 4.07812 19.8698 5.20312 20.4219 6.48438C20.974 7.76562 21.25 9.14583 21.25 10.625C21.25 12.1875 20.9948 13.6875 20.4844 15.125C19.974 16.5625 19.276 17.8958 18.3906 19.125C17.5052 20.3542 16.4531 21.4688 15.2344 22.4688C14.0156 23.4688 12.6875 24.3125 11.25 25V25M10.5938 17.4688C10.9479 17.4688 11.25 17.3438 11.5 17.0938C11.75 16.8438 11.875 16.5417 11.875 16.1875C11.875 15.8333 11.75 15.5312 11.5 15.2812C11.25 15.0312 10.9479 14.9062 10.5938 14.9062C10.2396 14.9062 9.9375 15.0312 9.6875 15.2812C9.4375 15.5312 9.3125 15.8333 9.3125 16.1875C9.3125 16.5417 9.4375 16.8438 9.6875 17.0938C9.9375 17.3438 10.2396 17.4688 10.5938 17.4688V17.4688M9.6875 13.5H11.5625C11.5625 12.875 11.625 12.4375 11.75 12.1875C11.875 11.9375 12.2708 11.4792 12.9375 10.8125C13.3125 10.4375 13.625 10.0312 13.875 9.59375C14.125 9.15625 14.25 8.6875 14.25 8.1875C14.25 7.125 13.8906 6.32812 13.1719 5.79688C12.4531 5.26562 11.6042 5 10.625 5C9.70833 5 8.9375 5.25521 8.3125 5.76562C7.6875 6.27604 7.25 6.89583 7 7.625L8.75 8.3125C8.85417 7.95833 9.05208 7.60938 9.34375 7.26562C9.63542 6.92188 10.0625 6.75 10.625 6.75C11.1875 6.75 11.6094 6.90625 11.8906 7.21875C12.1719 7.53125 12.3125 7.875 12.3125 8.25C12.3125 8.60417 12.2083 8.92188 12 9.20312C11.7917 9.48438 11.5417 9.77083 11.25 10.0625C10.5208 10.6875 10.0781 11.1823 9.92188 11.5469C9.76562 11.9115 9.6875 12.5625 9.6875 13.5V13.5" fill="var(--fill-0, white)"/>
</g>
</svg>
