<svg preserveAspectRatio="none" width="100%" height="100%" overflow="visible" style="display: block;" viewBox="0 0 13.5 15" fill="none" xmlns="http://www.w3.org/2000/svg">
<g id="Container">
<path id="Icon" d="M9.75 11.25C10.0625 11.25 10.3281 11.1406 10.5469 10.9219C10.7656 10.7031 10.875 10.4375 10.875 10.125C10.875 9.8125 10.7656 9.54688 10.5469 9.32812C10.3281 9.10938 10.0625 9 9.75 9C9.4375 9 9.17188 9.10938 8.95312 9.32812C8.73438 9.54688 8.625 9.8125 8.625 10.125C8.625 10.4375 8.73438 10.7031 8.95312 10.9219C9.17188 11.1406 9.4375 11.25 9.75 11.25V11.25M9.75 13.5C10.1375 13.5 10.4938 13.4094 10.8188 13.2281C11.1438 13.0469 11.4062 12.8063 11.6062 12.5063C11.3312 12.3438 11.0375 12.2188 10.725 12.1313C10.4125 12.0438 10.0875 12 9.75 12C9.4125 12 9.0875 12.0438 8.775 12.1313C8.4625 12.2188 8.16875 12.3438 7.89375 12.5063C8.09375 12.8063 8.35625 13.0469 8.68125 13.2281C9.00625 13.4094 9.3625 13.5 9.75 13.5V13.5M6 15C4.2625 14.5625 2.82812 13.5656 1.69687 12.0094C0.565625 10.4531 0 8.725 0 6.825V2.25L6 0L12 2.25V6.50625C11.7625 6.40625 11.5188 6.31562 11.2688 6.23438C11.0188 6.15313 10.7625 6.09375 10.5 6.05625V3.3L6 1.6125L1.5 3.3V6.825C1.5 7.4125 1.57812 8 1.73438 8.5875C1.89062 9.175 2.10938 9.73438 2.39062 10.2656C2.67188 10.7969 3.0125 11.2875 3.4125 11.7375C3.8125 12.1875 4.25625 12.5625 4.74375 12.8625V12.8625C4.88125 13.2625 5.0625 13.6438 5.2875 14.0063C5.5125 14.3688 5.76875 14.6937 6.05625 14.9812C6.04375 14.9812 6.03437 14.9844 6.02812 14.9906C6.02187 14.9969 6.0125 15 6 15V15M9.75 15C8.7125 15 7.82813 14.6344 7.09688 13.9031C6.36563 13.1719 6 12.2875 6 11.25C6 10.2125 6.36563 9.32813 7.09688 8.59688C7.82813 7.86563 8.7125 7.5 9.75 7.5C10.7875 7.5 11.6719 7.86563 12.4031 8.59688C13.1344 9.32813 13.5 10.2125 13.5 11.25C13.5 12.2875 13.1344 13.1719 12.4031 13.9031C11.6719 14.6344 10.7875 15 9.75 15V15M6 7.2375V7.2375V7.2375V7.2375V7.2375V7.2375V7.2375V7.2375V7.2375V7.2375V7.2375V7.2375V7.2375V7.2375V7.2375V7.2375V7.2375" fill="var(--fill-0, #334155)"/>
</g>
</svg>
