<svg preserveAspectRatio="none" width="100%" height="100%" overflow="visible" style="display: block;" viewBox="0 0 24.076 24" fill="none" xmlns="http://www.w3.org/2000/svg">
<g id="Container">
<path id="Icon" d="M2.70467 24C1.57134 24 0.765784 23.4944 0.288006 22.4833C-0.189772 21.4722 -0.0731049 20.5333 0.638006 19.6667L8.03801 10.6667V2.66667H6.70467C6.3269 2.66667 6.01023 2.53889 5.75467 2.28333C5.49912 2.02778 5.37134 1.71111 5.37134 1.33333C5.37134 0.955556 5.49912 0.638889 5.75467 0.383333C6.01023 0.127778 6.3269 0 6.70467 0H17.3713C17.7491 0 18.0658 0.127778 18.3213 0.383333C18.5769 0.638889 18.7047 0.955556 18.7047 1.33333C18.7047 1.71111 18.5769 2.02778 18.3213 2.28333C18.0658 2.53889 17.7491 2.66667 17.3713 2.66667H16.038V10.6667L23.438 19.6667C24.1491 20.5333 24.2658 21.4722 23.788 22.4833C23.3102 23.4944 22.5047 24 21.3713 24H2.70467V24M2.70467 21.3333H21.3713L13.3713 11.6V2.66667H10.7047V11.6L2.70467 21.3333V21.3333M12.038 12V12V12V12V12V12V12V12" fill="var(--fill-0, #9333EA)"/>
</g>
</svg>
