<svg preserveAspectRatio="none" width="100%" height="100%" overflow="visible" style="display: block;" viewBox="0 0 31.8333 33.5" fill="none" xmlns="http://www.w3.org/2000/svg">
<g id="Background">
<rect width="31.8333" height="33.5" rx="8" fill="var(--fill-0, #FEF2F2)"/>
<path id="Icon" d="M19.6667 25.5C18.5139 25.5 17.5312 25.0938 16.7188 24.2812C15.9062 23.4688 15.5 22.4861 15.5 21.3333C15.5 20.1806 15.9062 19.1979 16.7188 18.3854C17.5312 17.5729 18.5139 17.1667 19.6667 17.1667C20.8194 17.1667 21.8021 17.5729 22.6146 18.3854C23.4271 19.1979 23.8333 20.1806 23.8333 21.3333C23.8333 22.4861 23.4271 23.4688 22.6146 24.2812C21.8021 25.0938 20.8194 25.5 19.6667 25.5V25.5M21.0625 23.3125L21.6458 22.7292L20.0833 21.1667V18.8333H19.25V21.5L21.0625 23.3125V23.3125M9.66667 24.6667C9.20833 24.6667 8.81597 24.5035 8.48958 24.1771C8.16319 23.8507 8 23.4583 8 23V11.3333C8 10.875 8.16319 10.4826 8.48958 10.1562C8.81597 9.82986 9.20833 9.66667 9.66667 9.66667H13.1458C13.2986 9.18056 13.5972 8.78125 14.0417 8.46875C14.4861 8.15625 14.9722 8 15.5 8C16.0556 8 16.5521 8.15625 16.9896 8.46875C17.4271 8.78125 17.7222 9.18056 17.875 9.66667H21.3333C21.7917 9.66667 22.184 9.82986 22.5104 10.1562C22.8368 10.4826 23 10.875 23 11.3333V16.5417C22.75 16.3611 22.4861 16.2083 22.2083 16.0833C21.9306 15.9583 21.6389 15.8472 21.3333 15.75V11.3333V11.3333V11.3333H19.6667V13.8333H11.3333V11.3333H9.66667V11.3333V11.3333V23V23V23H14.0833C14.1806 23.3056 14.2917 23.5972 14.4167 23.875C14.5417 24.1528 14.6944 24.4167 14.875 24.6667H9.66667V24.6667M15.5 11.3333C15.7361 11.3333 15.934 11.2535 16.0938 11.0938C16.2535 10.934 16.3333 10.7361 16.3333 10.5C16.3333 10.2639 16.2535 10.066 16.0938 9.90625C15.934 9.74653 15.7361 9.66667 15.5 9.66667C15.2639 9.66667 15.066 9.74653 14.9062 9.90625C14.7465 10.066 14.6667 10.2639 14.6667 10.5C14.6667 10.7361 14.7465 10.934 14.9062 11.0938C15.066 11.2535 15.2639 11.3333 15.5 11.3333V11.3333" fill="var(--fill-0, #DC2626)"/>
</g>
</svg>
