<svg preserveAspectRatio="none" width="100%" height="100%" overflow="visible" style="display: block;" viewBox="0 0 82 79.5" fill="none" xmlns="http://www.w3.org/2000/svg">
<g id="Container" opacity="0.1">
<path id="Icon" d="M33.125 53.0625L41 48.3125L48.875 53.125L46.8125 44.125L53.75 38.125L44.625 37.3125L41 28.8125L37.375 37.25L28.25 38.0625L35.1875 44.125L33.125 53.0625V53.0625M25.5625 63.5L29.625 45.9375L16 34.125L34 32.5625L41 16L48 32.5625L66 34.125L52.375 45.9375L56.4375 63.5L41 54.1875L25.5625 63.5V63.5M41 41.625V41.625V41.625V41.625V41.625V41.625V41.625V41.625V41.625V41.625V41.625V41.625" fill="var(--fill-0, white)"/>
</g>
</svg>
