<svg preserveAspectRatio="none" width="100%" height="100%" overflow="visible" style="display: block;" viewBox="0 0 10.6667 13.3333" fill="none" xmlns="http://www.w3.org/2000/svg">
<g id="Container">
<path id="Icon" d="M5.33333 6.66667C5.7 6.66667 6.01389 6.53611 6.275 6.275C6.53611 6.01389 6.66667 5.7 6.66667 5.33333C6.66667 4.96667 6.53611 4.65278 6.275 4.39167C6.01389 4.13056 5.7 4 5.33333 4C4.96667 4 4.65278 4.13056 4.39167 4.39167C4.13056 4.65278 4 4.96667 4 5.33333C4 5.7 4.13056 6.01389 4.39167 6.275C4.65278 6.53611 4.96667 6.66667 5.33333 6.66667V6.66667M5.33333 13.3333C3.54444 11.8111 2.20833 10.3972 1.325 9.09167C0.441667 7.78611 0 6.57778 0 5.46667C0 3.8 0.536111 2.47222 1.60833 1.48333C2.68056 0.494444 3.92222 0 5.33333 0C6.74444 0 7.98611 0.494444 9.05833 1.48333C10.1306 2.47222 10.6667 3.8 10.6667 5.46667C10.6667 6.57778 10.225 7.78611 9.34167 9.09167C8.45833 10.3972 7.12222 11.8111 5.33333 13.3333V13.3333" fill="var(--fill-0, #DBEAFE)"/>
</g>
</svg>
