<svg preserveAspectRatio="none" width="100%" height="100%" overflow="visible" style="display: block;" viewBox="0 0 13.5 15" fill="none" xmlns="http://www.w3.org/2000/svg">
<g id="Container">
<path id="Icon" d="M0 15V0L1.125 1.125L2.25 0L3.375 1.125L4.5 0L5.625 1.125L6.75 0L7.875 1.125L9 0L10.125 1.125L11.25 0L12.375 1.125L13.5 0V15L12.375 13.875L11.25 15L10.125 13.875L9 15L7.875 13.875L6.75 15L5.625 13.875L4.5 15L3.375 13.875L2.25 15L1.125 13.875L0 15V15M2.25 11.25H11.25V9.75H2.25V11.25V11.25M2.25 8.25H11.25V6.75H2.25V8.25V8.25M2.25 5.25H11.25V3.75H2.25V5.25V5.25" fill="var(--fill-0, #475569)"/>
</g>
</svg>
