<svg preserveAspectRatio="none" width="100%" height="100%" overflow="visible" style="display: block;" viewBox="0 0 34.3333 29.3333" fill="none" xmlns="http://www.w3.org/2000/svg">
<g id="Background">
<rect width="34.3333" height="29.3333" rx="8" fill="var(--fill-0, #F0FDF4)"/>
<path id="Icon" d="M18.8333 15.5C18.1389 15.5 17.5486 15.2569 17.0625 14.7708C16.5764 14.2847 16.3333 13.6944 16.3333 13C16.3333 12.3056 16.5764 11.7153 17.0625 11.2292C17.5486 10.7431 18.1389 10.5 18.8333 10.5C19.5278 10.5 20.1181 10.7431 20.6042 11.2292C21.0903 11.7153 21.3333 12.3056 21.3333 13C21.3333 13.6944 21.0903 14.2847 20.6042 14.7708C20.1181 15.2569 19.5278 15.5 18.8333 15.5V15.5M13 18C12.5417 18 12.1493 17.8368 11.8229 17.5104C11.4965 17.184 11.3333 16.7917 11.3333 16.3333V9.66667C11.3333 9.20833 11.4965 8.81597 11.8229 8.48958C12.1493 8.16319 12.5417 8 13 8H24.6667C25.125 8 25.5174 8.16319 25.8438 8.48958C26.1701 8.81597 26.3333 9.20833 26.3333 9.66667V16.3333C26.3333 16.7917 26.1701 17.184 25.8438 17.5104C25.5174 17.8368 25.125 18 24.6667 18H13V18M14.6667 16.3333H23C23 15.875 23.1632 15.4826 23.4896 15.1562C23.816 14.8299 24.2083 14.6667 24.6667 14.6667V11.3333C24.2083 11.3333 23.816 11.1701 23.4896 10.8438C23.1632 10.5174 23 10.125 23 9.66667H14.6667C14.6667 10.125 14.5035 10.5174 14.1771 10.8438C13.8507 11.1701 13.4583 11.3333 13 11.3333V14.6667C13.4583 14.6667 13.8507 14.8299 14.1771 15.1562C14.5035 15.4826 14.6667 15.875 14.6667 16.3333V16.3333M23.8333 21.3333H9.66667C9.20833 21.3333 8.81597 21.1701 8.48958 20.8438C8.16319 20.5174 8 20.125 8 19.6667V10.5H9.66667V19.6667V19.6667V19.6667H23.8333V21.3333V21.3333M13 16.3333V16.3333V16.3333V16.3333V9.66667V9.66667V9.66667V9.66667V9.66667V9.66667V16.3333V16.3333V16.3333V16.3333" fill="var(--fill-0, #16A34A)"/>
</g>
</svg>
