<svg preserveAspectRatio="none" width="100%" height="100%" overflow="visible" style="display: block;" viewBox="0 0 31 32.6667" fill="none" xmlns="http://www.w3.org/2000/svg">
<g id="Background">
<rect width="31" height="32.6667" rx="8" fill="var(--fill-0, #FFF7ED)"/>
<path id="Icon" d="M14.625 21.625L11.6667 18.6667L12.875 17.4583L14.625 19.2083L18.125 15.7083L19.3333 16.9167L14.625 21.625V21.625M9.66667 24.6667C9.20833 24.6667 8.81597 24.5035 8.48958 24.1771C8.16319 23.8507 8 23.4583 8 23V11.3333C8 10.875 8.16319 10.4826 8.48958 10.1562C8.81597 9.82986 9.20833 9.66667 9.66667 9.66667H10.5V8H12.1667V9.66667H18.8333V8H20.5V9.66667H21.3333C21.7917 9.66667 22.184 9.82986 22.5104 10.1562C22.8368 10.4826 23 10.875 23 11.3333V23C23 23.4583 22.8368 23.8507 22.5104 24.1771C22.184 24.5035 21.7917 24.6667 21.3333 24.6667H9.66667V24.6667M9.66667 23H21.3333V23V23V14.6667H9.66667V23V23V23V23M9.66667 13H21.3333V11.3333V11.3333V11.3333H9.66667V11.3333V11.3333V13V13M9.66667 13V11.3333V11.3333V11.3333V11.3333V11.3333V11.3333V13V13V13" fill="var(--fill-0, #EA580C)"/>
</g>
</svg>
