<svg preserveAspectRatio="none" width="100%" height="100%" overflow="visible" style="display: block;" viewBox="0 0 34.3333 29.3333" fill="none" xmlns="http://www.w3.org/2000/svg">
<g id="Background">
<rect width="34.3333" height="29.3333" rx="8" fill="var(--fill-0, #FAF5FF)"/>
<path id="Icon" d="M8 21.3333V19C8 18.5278 8.12153 18.0938 8.36458 17.6979C8.60764 17.3021 8.93056 17 9.33333 16.7917C10.1944 16.3611 11.0694 16.0382 11.9583 15.8229C12.8472 15.6076 13.75 15.5 14.6667 15.5C15.5833 15.5 16.4861 15.6076 17.375 15.8229C18.2639 16.0382 19.1389 16.3611 20 16.7917C20.4028 17 20.7257 17.3021 20.9688 17.6979C21.2118 18.0938 21.3333 18.5278 21.3333 19V21.3333H8V21.3333M23 21.3333V18.8333C23 18.2222 22.8299 17.6354 22.4896 17.0729C22.1493 16.5104 21.6667 16.0278 21.0417 15.625C21.75 15.7083 22.4167 15.8507 23.0417 16.0521C23.6667 16.2535 24.25 16.5 24.7917 16.7917C25.2917 17.0694 25.6736 17.3785 25.9375 17.7188C26.2014 18.059 26.3333 18.4306 26.3333 18.8333V21.3333H23V21.3333M14.6667 14.6667C13.75 14.6667 12.9653 14.3403 12.3125 13.6875C11.6597 13.0347 11.3333 12.25 11.3333 11.3333C11.3333 10.4167 11.6597 9.63194 12.3125 8.97917C12.9653 8.32639 13.75 8 14.6667 8C15.5833 8 16.3681 8.32639 17.0208 8.97917C17.6736 9.63194 18 10.4167 18 11.3333C18 12.25 17.6736 13.0347 17.0208 13.6875C16.3681 14.3403 15.5833 14.6667 14.6667 14.6667V14.6667M23 11.3333C23 12.25 22.6736 13.0347 22.0208 13.6875C21.3681 14.3403 20.5833 14.6667 19.6667 14.6667C19.5139 14.6667 19.3194 14.6493 19.0833 14.6146C18.8472 14.5799 18.6528 14.5417 18.5 14.5C18.875 14.0556 19.1632 13.5625 19.3646 13.0208C19.566 12.4792 19.6667 11.9167 19.6667 11.3333C19.6667 10.75 19.566 10.1875 19.3646 9.64583C19.1632 9.10417 18.875 8.61111 18.5 8.16667C18.6944 8.09722 18.8889 8.05208 19.0833 8.03125C19.2778 8.01042 19.4722 8 19.6667 8C20.5833 8 21.3681 8.32639 22.0208 8.97917C22.6736 9.63194 23 10.4167 23 11.3333V11.3333M9.66667 19.6667H19.6667V19C19.6667 18.8472 19.6285 18.7083 19.5521 18.5833C19.4757 18.4583 19.375 18.3611 19.25 18.2917C18.5 17.9167 17.7431 17.6354 16.9792 17.4479C16.2153 17.2604 15.4444 17.1667 14.6667 17.1667C13.8889 17.1667 13.1181 17.2604 12.3542 17.4479C11.5903 17.6354 10.8333 17.9167 10.0833 18.2917C9.95833 18.3611 9.85764 18.4583 9.78125 18.5833C9.70486 18.7083 9.66667 18.8472 9.66667 19V19.6667V19.6667M14.6667 13C15.125 13 15.5174 12.8368 15.8438 12.5104C16.1701 12.184 16.3333 11.7917 16.3333 11.3333C16.3333 10.875 16.1701 10.4826 15.8438 10.1562C15.5174 9.82986 15.125 9.66667 14.6667 9.66667C14.2083 9.66667 13.816 9.82986 13.4896 10.1562C13.1632 10.4826 13 10.875 13 11.3333C13 11.7917 13.1632 12.184 13.4896 12.5104C13.816 12.8368 14.2083 13 14.6667 13V13M14.6667 19.6667V19.6667V19.6667V19.6667V19.6667V19.6667V19.6667V19.6667V19.6667V19.6667V19.6667V19.6667V19.6667M14.6667 11.3333V11.3333V11.3333V11.3333V11.3333V11.3333V11.3333V11.3333V11.3333V11.3333" fill="var(--fill-0, #9333EA)"/>
</g>
</svg>
