<svg preserveAspectRatio="none" width="100%" height="100%" overflow="visible" style="display: block;" viewBox="0 0 14.25 13.5" fill="none" xmlns="http://www.w3.org/2000/svg">
<g id="Container">
<path id="Icon" d="M1.5 13.5C1.0875 13.5 0.734375 13.3531 0.440625 13.0594C0.146875 12.7656 0 12.4125 0 12V1.5C0 1.0875 0.146875 0.734375 0.440625 0.440625C0.734375 0.146875 1.0875 0 1.5 0H12C12.4125 0 12.7656 0.146875 13.0594 0.440625C13.3531 0.734375 13.5 1.0875 13.5 1.5V1.5H7.5C6.6125 1.5 5.89062 1.77812 5.33437 2.33437C4.77812 2.89062 4.5 3.6125 4.5 4.5V9C4.5 9.8875 4.77812 10.6094 5.33437 11.1656C5.89062 11.7219 6.6125 12 7.5 12H13.5V12C13.5 12.4125 13.3531 12.7656 13.0594 13.0594C12.7656 13.3531 12.4125 13.5 12 13.5H1.5V13.5M7.5 10.5C7.0875 10.5 6.73438 10.3531 6.44063 10.0594C6.14688 9.76562 6 9.4125 6 9V4.5C6 4.0875 6.14688 3.73437 6.44063 3.44062C6.73438 3.14687 7.0875 3 7.5 3H12.75C13.1625 3 13.5156 3.14687 13.8094 3.44062C14.1031 3.73437 14.25 4.0875 14.25 4.5V9C14.25 9.4125 14.1031 9.76562 13.8094 10.0594C13.5156 10.3531 13.1625 10.5 12.75 10.5H7.5V10.5M9.75 7.875C10.075 7.875 10.3437 7.76875 10.5562 7.55625C10.7687 7.34375 10.875 7.075 10.875 6.75C10.875 6.425 10.7687 6.15625 10.5562 5.94375C10.3437 5.73125 10.075 5.625 9.75 5.625C9.425 5.625 9.15625 5.73125 8.94375 5.94375C8.73125 6.15625 8.625 6.425 8.625 6.75C8.625 7.075 8.73125 7.34375 8.94375 7.55625C9.15625 7.76875 9.425 7.875 9.75 7.875V7.875" fill="var(--fill-0, #64748B)"/>
</g>
</svg>
