<svg preserveAspectRatio="none" width="100%" height="100%" overflow="visible" style="display: block;" viewBox="0 0 47.5 45" fill="none" xmlns="http://www.w3.org/2000/svg">
<g id="Background" opacity="0.4">
<rect width="47.5" height="45" fill="white" style="mix-blend-mode:saturation"/>
<path id="Icon" d="M2.5 45V34.375L35.4375 1.5C35.9375 1 36.5 0.625 37.125 0.375C37.75 0.125 38.375 0 39 0C39.6667 0 40.3021 0.125 40.9062 0.375C41.5104 0.625 42.0417 1 42.5 1.5L46 5C46.5 5.45833 46.875 5.98958 47.125 6.59375C47.375 7.19792 47.5 7.83333 47.5 8.5C47.5 9.125 47.375 9.75 47.125 10.375C46.875 11 46.5 11.5625 46 12.0625L13.125 45H2.5V45M7.5 40H11L35.5625 15.5L33.8125 13.6875L32 11.9375L7.5 36.5V40V40M42.5 8.5625V8.5625L38.9375 5V5L42.5 8.5625V8.5625M33.8125 13.6875L32 11.9375V11.9375L35.5625 15.5V15.5L33.8125 13.6875V13.6875M27.5 45C30.5833 45 33.4375 44.2292 36.0625 42.6875C38.6875 41.1458 40 39 40 36.25C40 34.75 39.6042 33.4583 38.8125 32.375C38.0208 31.2917 36.9583 30.3542 35.625 29.5625L31.9375 33.25C32.8958 33.6667 33.6458 34.125 34.1875 34.625C34.7292 35.125 35 35.6667 35 36.25C35 37.2083 34.2396 38.0729 32.7188 38.8438C31.1979 39.6146 29.4583 40 27.5 40C26.7917 40 26.1979 40.2396 25.7188 40.7188C25.2396 41.1979 25 41.7917 25 42.5C25 43.2083 25.2396 43.8021 25.7188 44.2812C26.1979 44.7604 26.7917 45 27.5 45V45M3.9375 25.875L7.6875 22.125C6.85417 21.7917 6.19792 21.4479 5.71875 21.0938C5.23958 20.7396 5 20.375 5 20C5 19.5 5.375 19 6.125 18.5C6.875 18 8.45833 17.2292 10.875 16.1875C14.5417 14.6042 16.9792 13.1667 18.1875 11.875C19.3958 10.5833 20 9.125 20 7.5C20 5.20833 19.0833 3.38542 17.25 2.03125C15.4167 0.677083 13 0 10 0C8.125 0 6.44792 0.333333 4.96875 1C3.48958 1.66667 2.35417 2.47917 1.5625 3.4375C1.10417 3.97917 0.916667 4.58333 1 5.25C1.08333 5.91667 1.39583 6.45833 1.9375 6.875C2.47917 7.33333 3.08333 7.52083 3.75 7.4375C4.41667 7.35417 4.97917 7.08333 5.4375 6.625C6.02083 6.04167 6.66667 5.625 7.375 5.375C8.08333 5.125 8.95833 5 10 5C11.7083 5 12.9688 5.25 13.7812 5.75C14.5938 6.25 15 6.83333 15 7.5C15 8.08333 14.6354 8.61458 13.9062 9.09375C13.1771 9.57292 11.5 10.4167 8.875 11.625C5.54167 13.0833 3.22917 14.4062 1.9375 15.5938C0.645833 16.7812 0 18.25 0 20C0 21.3333 0.354167 22.4688 1.0625 23.4062C1.77083 24.3438 2.72917 25.1667 3.9375 25.875V25.875" fill="var(--fill-0, #0F172A)"/>
</g>
</svg>
