<svg preserveAspectRatio="none" width="100%" height="100%" overflow="visible" style="display: block;" viewBox="0 0 833.175 287" fill="none" xmlns="http://www.w3.org/2000/svg">
<g id="SVG">
<path id="Vector" d="M12.075 229.6L173.075 186.55L334.075 200.9L495.075 114.8L656.075 86.1L817.075 43.05" stroke="var(--stroke-0, #137FEC)" stroke-width="10.92"/>
<path id="Vector_2" d="M12.075 229.6L173.075 186.55L334.075 200.9L495.075 114.8L656.075 86.1L817.075 43.05V287H12.075V229.6" fill="url(#paint0_linear_87_3691)"/>
<path id="Vector_3" d="M0 229.6C0 231.976 5.41063 233.905 12.075 233.905C18.7394 233.905 24.15 231.976 24.15 229.6C24.15 227.224 18.7394 225.295 12.075 225.295C5.41063 225.295 0 227.224 0 229.6V229.6" fill="var(--fill-0, #137FEC)"/>
<path id="Vector_4" d="M161 186.55C161 188.926 166.411 190.855 173.075 190.855C179.739 190.855 185.15 188.926 185.15 186.55C185.15 184.174 179.739 182.245 173.075 182.245C166.411 182.245 161 184.174 161 186.55V186.55" fill="var(--fill-0, #137FEC)"/>
<path id="Vector_5" d="M322 200.9C322 203.276 327.411 205.205 334.075 205.205C340.739 205.205 346.15 203.276 346.15 200.9C346.15 198.524 340.739 196.595 334.075 196.595C327.411 196.595 322 198.524 322 200.9V200.9" fill="var(--fill-0, #137FEC)"/>
<path id="Vector_6" d="M483 114.8C483 117.176 488.411 119.105 495.075 119.105C501.739 119.105 507.15 117.176 507.15 114.8C507.15 112.424 501.739 110.495 495.075 110.495C488.411 110.495 483 112.424 483 114.8V114.8" fill="var(--fill-0, #137FEC)"/>
<path id="Vector_7" d="M644 86.1C644 88.476 649.411 90.405 656.075 90.405C662.739 90.405 668.15 88.476 668.15 86.1C668.15 83.724 662.739 81.795 656.075 81.795C649.411 81.795 644 83.724 644 86.1V86.1" fill="var(--fill-0, #137FEC)"/>
<path id="Vector_8" d="M800.975 43.05C800.975 46.218 808.189 48.79 817.075 48.79C825.961 48.79 833.175 46.218 833.175 43.05C833.175 39.882 825.961 37.31 817.075 37.31C808.189 37.31 800.975 39.882 800.975 43.05V43.05" fill="var(--fill-0, #137FEC)"/>
</g>
<defs>
<linearGradient id="paint0_linear_87_3691" x1="12.075" y1="43.05" x2="12.075" y2="287" gradientUnits="userSpaceOnUse">
<stop stop-color="#137FEC" stop-opacity="0.2"/>
<stop offset="1" stop-color="#137FEC" stop-opacity="0"/>
</linearGradient>
</defs>
</svg>
