<svg preserveAspectRatio="none" width="100%" height="100%" overflow="visible" style="display: block;" viewBox="0 0 24 18" fill="none" xmlns="http://www.w3.org/2000/svg">
<g id="Container">
<path id="Icon" d="M8 18C7.45 18 6.97917 17.8042 6.5875 17.4125C6.19583 17.0208 6 16.55 6 16V2C6 1.45 6.19583 0.979167 6.5875 0.5875C6.97917 0.195833 7.45 0 8 0H16C16.55 0 17.0208 0.195833 17.4125 0.5875C17.8042 0.979167 18 1.45 18 2V16C18 16.55 17.8042 17.0208 17.4125 17.4125C17.0208 17.8042 16.55 18 16 18H8V18M16 16V2V2V2H8V2V2V16V16V16H16V16V16V16M12 5C12.2833 5 12.5208 4.90417 12.7125 4.7125C12.9042 4.52083 13 4.28333 13 4C13 3.71667 12.9042 3.47917 12.7125 3.2875C12.5208 3.09583 12.2833 3 12 3C11.7167 3 11.4792 3.09583 11.2875 3.2875C11.0958 3.47917 11 3.71667 11 4C11 4.28333 11.0958 4.52083 11.2875 4.7125C11.4792 4.90417 11.7167 5 12 5V5M0 12V6H2V12H0V12M3 14V4H5V14H3V14M22 12V6H24V12H22V12M19 14V4H21V14H19V14M8 16V16V16V16V16V16V2V2V2V2V2V2V16V16" fill="var(--fill-0, #EA580C)"/>
</g>
</svg>
