<svg preserveAspectRatio="none" width="100%" height="100%" overflow="visible" style="display: block;" viewBox="0 0 32.6667 32.6667" fill="none" xmlns="http://www.w3.org/2000/svg">
<g id="Background">
<rect width="32.6667" height="32.6667" rx="8" fill="var(--fill-0, #EFF6FF)"/>
<path id="Icon" d="M15.1667 20.1667L21.0417 14.2917L19.875 13.125L15.1667 17.8333L12.7917 15.4583L11.625 16.625L15.1667 20.1667V20.1667M16.3333 24.6667C15.1806 24.6667 14.0972 24.4479 13.0833 24.0104C12.0694 23.5729 11.1875 22.9792 10.4375 22.2292C9.6875 21.4792 9.09375 20.5972 8.65625 19.5833C8.21875 18.5694 8 17.4861 8 16.3333C8 15.1806 8.21875 14.0972 8.65625 13.0833C9.09375 12.0694 9.6875 11.1875 10.4375 10.4375C11.1875 9.6875 12.0694 9.09375 13.0833 8.65625C14.0972 8.21875 15.1806 8 16.3333 8C17.4861 8 18.5694 8.21875 19.5833 8.65625C20.5972 9.09375 21.4792 9.6875 22.2292 10.4375C22.9792 11.1875 23.5729 12.0694 24.0104 13.0833C24.4479 14.0972 24.6667 15.1806 24.6667 16.3333C24.6667 17.4861 24.4479 18.5694 24.0104 19.5833C23.5729 20.5972 22.9792 21.4792 22.2292 22.2292C21.4792 22.9792 20.5972 23.5729 19.5833 24.0104C18.5694 24.4479 17.4861 24.6667 16.3333 24.6667V24.6667M16.3333 23C18.1944 23 19.7708 22.3542 21.0625 21.0625C22.3542 19.7708 23 18.1944 23 16.3333C23 14.4722 22.3542 12.8958 21.0625 11.6042C19.7708 10.3125 18.1944 9.66667 16.3333 9.66667C14.4722 9.66667 12.8958 10.3125 11.6042 11.6042C10.3125 12.8958 9.66667 14.4722 9.66667 16.3333C9.66667 18.1944 10.3125 19.7708 11.6042 21.0625C12.8958 22.3542 14.4722 23 16.3333 23V23M16.3333 16.3333V16.3333V16.3333V16.3333V16.3333V16.3333V16.3333V16.3333V16.3333V16.3333" fill="var(--fill-0, #2563EB)"/>
</g>
</svg>
