<svg preserveAspectRatio="none" width="100%" height="100%" overflow="visible" style="display: block;" viewBox="0 0 25.5 18" fill="none" xmlns="http://www.w3.org/2000/svg">
<path id="Icon" d="M2.55 18L6 12V12V12C4.35 12 2.9375 11.4125 1.7625 10.2375C0.5875 9.0625 0 7.65 0 6C0 4.35 0.5875 2.9375 1.7625 1.7625C2.9375 0.5875 4.35 0 6 0C7.65 0 9.0625 0.5875 10.2375 1.7625C11.4125 2.9375 12 4.35 12 6C12 6.575 11.9312 7.10625 11.7937 7.59375C11.6562 8.08125 11.45 8.55 11.175 9L6 18H2.55V18M16.05 18L19.5 12V12V12C17.85 12 16.4375 11.4125 15.2625 10.2375C14.0875 9.0625 13.5 7.65 13.5 6C13.5 4.35 14.0875 2.9375 15.2625 1.7625C16.4375 0.5875 17.85 0 19.5 0C21.15 0 22.5625 0.5875 23.7375 1.7625C24.9125 2.9375 25.5 4.35 25.5 6C25.5 6.575 25.4313 7.10625 25.2938 7.59375C25.1563 8.08125 24.95 8.55 24.675 9L19.5 18H16.05V18M6 8.25C6.625 8.25 7.15625 8.03125 7.59375 7.59375C8.03125 7.15625 8.25 6.625 8.25 6C8.25 5.375 8.03125 4.84375 7.59375 4.40625C7.15625 3.96875 6.625 3.75 6 3.75C5.375 3.75 4.84375 3.96875 4.40625 4.40625C3.96875 4.84375 3.75 5.375 3.75 6C3.75 6.625 3.96875 7.15625 4.40625 7.59375C4.84375 8.03125 5.375 8.25 6 8.25V8.25M19.5 8.25C20.125 8.25 20.6562 8.03125 21.0938 7.59375C21.5312 7.15625 21.75 6.625 21.75 6C21.75 5.375 21.5312 4.84375 21.0938 4.40625C20.6562 3.96875 20.125 3.75 19.5 3.75C18.875 3.75 18.3438 3.96875 17.9062 4.40625C17.4688 4.84375 17.25 5.375 17.25 6C17.25 6.625 17.4688 7.15625 17.9062 7.59375C18.3438 8.03125 18.875 8.25 19.5 8.25V8.25M19.5 6V6V6V6V6V6V6V6V6V6M6 6V6V6V6V6V6V6V6V6V6" fill="var(--fill-0, #CBD5E1)"/>
</svg>
