<svg preserveAspectRatio="none" width="100%" height="100%" overflow="visible" style="display: block;" viewBox="0 0 13.5 13.5" fill="none" xmlns="http://www.w3.org/2000/svg">
<g id="Container">
<path id="Icon" d="M3.75 11.25H4.875V9.75H6.375V8.625H4.875V7.125H3.75V8.625H2.25V9.75H3.75V11.25V11.25M7.5 10.6875H11.25V9.5625H7.5V10.6875V10.6875M7.5 8.8125H11.25V7.6875H7.5V8.8125V8.8125M8.325 5.9625L9.375 4.9125L10.425 5.9625L11.2125 5.175L10.1625 4.0875L11.2125 3.0375L10.425 2.25L9.375 3.3L8.325 2.25L7.5375 3.0375L8.5875 4.0875L7.5375 5.175L8.325 5.9625V5.9625M2.4375 4.65H6.1875V3.525H2.4375V4.65V4.65M1.5 13.5C1.0875 13.5 0.734375 13.3531 0.440625 13.0594C0.146875 12.7656 0 12.4125 0 12V1.5C0 1.0875 0.146875 0.734375 0.440625 0.440625C0.734375 0.146875 1.0875 0 1.5 0H12C12.4125 0 12.7656 0.146875 13.0594 0.440625C13.3531 0.734375 13.5 1.0875 13.5 1.5V12C13.5 12.4125 13.3531 12.7656 13.0594 13.0594C12.7656 13.3531 12.4125 13.5 12 13.5H1.5V13.5M1.5 12H12V12V12V1.5V1.5V1.5H1.5V1.5V1.5V12V12V12V12M1.5 1.5V1.5V1.5V1.5V12V12V12V12V12V12V1.5V1.5V1.5V1.5" fill="var(--fill-0, #EA580C)"/>
</g>
</svg>
