<svg preserveAspectRatio="none" width="100%" height="100%" overflow="visible" style="display: block;" viewBox="0 0 15 15" fill="none" xmlns="http://www.w3.org/2000/svg">
<g id="Container">
<path id="Icon" d="M4.16667 12.5H5.41667V10.8333H7.08333V9.58333H5.41667V7.91667H4.16667V9.58333H2.5V10.8333H4.16667V12.5V12.5M8.33333 11.875H12.5V10.625H8.33333V11.875V11.875M8.33333 9.79167H12.5V8.54167H8.33333V9.79167V9.79167M9.25 6.625L10.4167 5.45833L11.5833 6.625L12.4583 5.75L11.2917 4.54167L12.4583 3.375L11.5833 2.5L10.4167 3.66667L9.25 2.5L8.375 3.375L9.54167 4.54167L8.375 5.75L9.25 6.625V6.625M2.70833 5.16667H6.875V3.91667H2.70833V5.16667V5.16667M1.66667 15C1.20833 15 0.815972 14.8368 0.489583 14.5104C0.163194 14.184 0 13.7917 0 13.3333V1.66667C0 1.20833 0.163194 0.815972 0.489583 0.489583C0.815972 0.163194 1.20833 0 1.66667 0H13.3333C13.7917 0 14.184 0.163194 14.5104 0.489583C14.8368 0.815972 15 1.20833 15 1.66667V13.3333C15 13.7917 14.8368 14.184 14.5104 14.5104C14.184 14.8368 13.7917 15 13.3333 15H1.66667V15M1.66667 13.3333H13.3333V13.3333V13.3333V1.66667V1.66667V1.66667H1.66667V1.66667V1.66667V13.3333V13.3333V13.3333V13.3333M1.66667 1.66667V1.66667V1.66667V1.66667V13.3333V13.3333V13.3333V13.3333V13.3333V13.3333V1.66667V1.66667V1.66667V1.66667" fill="var(--fill-0, #0D141B)"/>
</g>
</svg>
