<svg preserveAspectRatio="none" width="100%" height="100%" overflow="visible" style="display: block;" viewBox="0 0 256 256" fill="none" xmlns="http://www.w3.org/2000/svg">
<g id="SVG">
<g id="Vector">
<path d="M128 25.6L230.4 128L128 204.8L38.4 153.6L128 25.6" fill="var(--fill-0, #137FEC)" fill-opacity="0.2"/>
<path d="M128 25.6L230.4 128L128 204.8L38.4 153.6L128 25.6" stroke="var(--stroke-0, #137FEC)" stroke-width="5.12" stroke-linejoin="round"/>
</g>
<path id="Vector_2" d="M122.88 25.6C122.88 28.4258 125.174 30.72 128 30.72C130.826 30.72 133.12 28.4258 133.12 25.6C133.12 22.7742 130.826 20.48 128 20.48C125.174 20.48 122.88 22.7742 122.88 25.6V25.6" fill="var(--fill-0, #137FEC)"/>
<path id="Vector_3" d="M225.28 128C225.28 130.826 227.574 133.12 230.4 133.12C233.226 133.12 235.52 130.826 235.52 128C235.52 125.174 233.226 122.88 230.4 122.88C227.574 122.88 225.28 125.174 225.28 128V128" fill="var(--fill-0, #137FEC)"/>
<path id="Vector_4" d="M122.88 204.8C122.88 207.626 125.174 209.92 128 209.92C130.826 209.92 133.12 207.626 133.12 204.8C133.12 201.974 130.826 199.68 128 199.68C125.174 199.68 122.88 201.974 122.88 204.8V204.8" fill="var(--fill-0, #137FEC)"/>
<path id="Vector_5" d="M33.28 153.6C33.28 156.426 35.5742 158.72 38.4 158.72C41.2258 158.72 43.52 156.426 43.52 153.6C43.52 150.774 41.2258 148.48 38.4 148.48C35.5742 148.48 33.28 150.774 33.28 153.6V153.6" fill="var(--fill-0, #137FEC)"/>
</g>
</svg>
