<svg preserveAspectRatio="none" width="100%" height="100%" overflow="visible" style="display: block;" viewBox="0 0 16.6667 16.6667" fill="none" xmlns="http://www.w3.org/2000/svg">
<g id="Container">
<path id="Icon" d="M5 16.6667C4.54167 16.6667 4.14931 16.5035 3.82292 16.1771C3.49653 15.8507 3.33333 15.4583 3.33333 15V5C3.33333 4.54167 3.49653 4.14931 3.82292 3.82292C4.14931 3.49653 4.54167 3.33333 5 3.33333H15C15.4583 3.33333 15.8507 3.49653 16.1771 3.82292C16.5035 4.14931 16.6667 4.54167 16.6667 5V15C16.6667 15.4583 16.5035 15.8507 16.1771 16.1771C15.8507 16.5035 15.4583 16.6667 15 16.6667H5V16.6667M5 15H9.16667V12.5H5V15V15V15V15M10.8333 15H15V15V15V12.5H10.8333V15V15M0 13.3333V1.66667C0 1.20833 0.163194 0.815972 0.489583 0.489583C0.815972 0.163194 1.20833 0 1.66667 0H13.3333V1.66667H1.66667V1.66667V1.66667V13.3333H0V13.3333M5 10.8333H9.16667V8.33333H5V10.8333V10.8333M10.8333 10.8333H15V8.33333H10.8333V10.8333V10.8333M5 6.66667H15V5V5V5H5V5V5V6.66667V6.66667" fill="var(--fill-0, white)"/>
</g>
</svg>
