<svg preserveAspectRatio="none" width="100%" height="100%" overflow="visible" style="display: block;" viewBox="0 0 13.3333 16.6667" fill="none" xmlns="http://www.w3.org/2000/svg">
<g id="Container">
<path id="Icon" d="M3.33333 13.3333H10V11.6667H3.33333V13.3333V13.3333M3.33333 10H10V8.33333H3.33333V10V10M1.66667 16.6667C1.20833 16.6667 0.815972 16.5035 0.489583 16.1771C0.163194 15.8507 0 15.4583 0 15V1.66667C0 1.20833 0.163194 0.815972 0.489583 0.489583C0.815972 0.163194 1.20833 0 1.66667 0H8.33333L13.3333 5V15C13.3333 15.4583 13.1701 15.8507 12.8438 16.1771C12.5174 16.5035 12.125 16.6667 11.6667 16.6667H1.66667V16.6667M7.5 5.83333V1.66667H1.66667V1.66667V1.66667V15V15V15H11.6667V15V15V5.83333H7.5V5.83333M1.66667 1.66667V1.66667V5.83333V5.83333V1.66667V5.83333V5.83333V15V15V15V15V15V15V1.66667V1.66667V1.66667V1.66667" fill="var(--fill-0, #4C739A)"/>
</g>
</svg>
