<svg preserveAspectRatio="none" width="100%" height="100%" overflow="visible" style="display: block;" viewBox="0 0 34.3333 31" fill="none" xmlns="http://www.w3.org/2000/svg">
<g id="Background">
<rect width="34.3333" height="31" rx="8" fill="var(--fill-0, #EFF6FF)"/>
<path id="Icon" d="M17.1667 23L11.3333 19.8333V14.8333L8 13L17.1667 8L26.3333 13V19.6667H24.6667V13.9167L23 14.8333V19.8333L17.1667 23V23M17.1667 16.0833L22.875 13L17.1667 9.91667L11.4583 13L17.1667 16.0833V16.0833M17.1667 21.1042L21.3333 18.8542V15.7083L17.1667 18L13 15.7083V18.8542L17.1667 21.1042V21.1042M17.1667 16.0833V16.0833V16.0833V16.0833V16.0833V16.0833M17.1667 17.9583V17.9583V17.9583V17.9583V17.9583V17.9583V17.9583V17.9583V17.9583V17.9583M17.1667 17.9583V17.9583V17.9583V17.9583V17.9583V17.9583V17.9583V17.9583V17.9583V17.9583" fill="var(--fill-0, #2563EB)"/>
</g>
</svg>
