<svg preserveAspectRatio="none" width="100%" height="100%" overflow="visible" style="display: block;" viewBox="0 0 53.3333 52" fill="none" xmlns="http://www.w3.org/2000/svg">
<g id="Background">
<rect width="53.3333" height="52" rx="26" fill="var(--fill-0, #F0FDF4)"/>
<path id="Icon" d="M22.1333 40L19.6 35.7333L14.8 34.6667L15.2667 29.7333L12 26L15.2667 22.2667L14.8 17.3333L19.6 16.2667L22.1333 12L26.6667 13.9333L31.2 12L33.7333 16.2667L38.5333 17.3333L38.0667 22.2667L41.3333 26L38.0667 29.7333L38.5333 34.6667L33.7333 35.7333L31.2 40L26.6667 38.0667L22.1333 40V40M23.2667 36.6L26.6667 35.1333L30.1333 36.6L32 33.4L35.6667 32.5333L35.3333 28.8L37.8 26L35.3333 23.1333L35.6667 19.4L32 18.6L30.0667 15.4L26.6667 16.8667L23.2 15.4L21.3333 18.6L17.6667 19.4L18 23.1333L15.5333 26L18 28.8L17.6667 32.6L21.3333 33.4L23.2667 36.6V36.6M26.6667 26V26V26V26V26V26V26V26V26V26V26V26V26V26V26V26V26V26V26V26V26V26M25.2667 30.7333L32.8 23.2L30.9333 21.2667L25.2667 26.9333L22.4 24.1333L20.5333 26L25.2667 30.7333V30.7333" fill="var(--fill-0, #16A34A)"/>
</g>
</svg>
