<svg preserveAspectRatio="none" width="100%" height="100%" overflow="visible" style="display: block;" viewBox="0 0 14.625 12" fill="none" xmlns="http://www.w3.org/2000/svg">
<g id="Container">
<path id="Icon" d="M4.875 12C4.4625 12 4.10937 11.8531 3.81562 11.5594C3.52187 11.2656 3.375 10.9125 3.375 10.5V8.25H5.625V6.5625C5.1875 6.5375 4.77188 6.44062 4.37813 6.27187C3.98438 6.10312 3.625 5.85 3.3 5.5125V4.6875H2.4375L0 2.25C0.45 1.675 1.00625 1.26875 1.66875 1.03125C2.33125 0.79375 3 0.675 3.675 0.675C4.0125 0.675 4.34063 0.7 4.65938 0.75C4.97813 0.8 5.3 0.89375 5.625 1.03125V0H14.625V9.75C14.625 10.375 14.4062 10.9062 13.9688 11.3438C13.5312 11.7812 13 12 12.375 12H4.875V12M7.125 8.25H11.625V9.75C11.625 9.9625 11.6969 10.1406 11.8406 10.2844C11.9844 10.4281 12.1625 10.5 12.375 10.5C12.5875 10.5 12.7656 10.4281 12.9094 10.2844C13.0531 10.1406 13.125 9.9625 13.125 9.75V1.5H7.125V1.95L11.625 6.45V7.5H10.575L8.4375 5.3625L8.2875 5.5125C8.1125 5.6875 7.92812 5.84375 7.73438 5.98125C7.54063 6.11875 7.3375 6.225 7.125 6.3V8.25V8.25M3.075 3.1875H4.8V4.8C4.95 4.9 5.10625 4.96875 5.26875 5.00625C5.43125 5.04375 5.6 5.0625 5.775 5.0625C6.0625 5.0625 6.32187 5.01875 6.55312 4.93125C6.78437 4.84375 7.0125 4.6875 7.2375 4.4625L7.3875 4.3125L6.3375 3.2625C5.975 2.9 5.56875 2.62813 5.11875 2.44688C4.66875 2.26563 4.1875 2.175 3.675 2.175C3.425 2.175 3.1875 2.19375 2.9625 2.23125C2.7375 2.26875 2.5125 2.325 2.2875 2.4L3.075 3.1875V3.1875M10.125 9.75H4.875V10.5V10.5V10.5H10.2375C10.2 10.3875 10.1719 10.2688 10.1531 10.1438C10.1344 10.0188 10.125 9.8875 10.125 9.75V9.75M4.875 10.5C4.875 10.3875 4.875 10.2688 4.875 10.1438C4.875 10.0188 4.875 9.8875 4.875 9.75V9.75C4.875 9.875 4.875 10 4.875 10.125C4.875 10.25 4.875 10.375 4.875 10.5V10.5V10.5V10.5" fill="var(--fill-0, #059669)"/>
</g>
</svg>
