<svg preserveAspectRatio="none" width="100%" height="100%" overflow="visible" style="display: block;" viewBox="0 0 29.3333 32.6667" fill="none" xmlns="http://www.w3.org/2000/svg">
<g id="Background">
<rect width="29.3333" height="32.6667" rx="8" fill="var(--fill-0, #EFF6FF)"/>
<path id="Icon" d="M9.66667 24.6667C9.20833 24.6667 8.81597 24.5035 8.48958 24.1771C8.16319 23.8507 8 23.4583 8 23V9.66667C8 9.20833 8.16319 8.81597 8.48958 8.48958C8.81597 8.16319 9.20833 8 9.66667 8H19.6667C20.125 8 20.5174 8.16319 20.8438 8.48958C21.1701 8.81597 21.3333 9.20833 21.3333 9.66667V23C21.3333 23.4583 21.1701 23.8507 20.8438 24.1771C20.5174 24.5035 20.125 24.6667 19.6667 24.6667H9.66667V24.6667M9.66667 23H19.6667V23V23V9.66667V9.66667V9.66667H18V15.5L15.9167 14.25L13.8333 15.5V9.66667H9.66667V9.66667V9.66667V23V23V23V23M9.66667 23V23V23V9.66667V9.66667V9.66667V9.66667V9.66667V9.66667V23V23V23V23V23M13.8333 15.5L15.9167 14.25L18 15.5V15.5L15.9167 14.25L13.8333 15.5V15.5V15.5" fill="var(--fill-0, #2563EB)"/>
</g>
</svg>
