<svg preserveAspectRatio="none" width="100%" height="100%" overflow="visible" style="display: block;" viewBox="0 0 18.3333 13.25" fill="none" xmlns="http://www.w3.org/2000/svg">
<g id="Container">
<path id="Icon" d="M4.58333 13.25C3.31944 13.25 2.23958 12.8125 1.34375 11.9375C0.447917 11.0625 0 9.99306 0 8.72917C0 7.64583 0.326389 6.68056 0.979167 5.83333C1.63194 4.98611 2.48611 4.44444 3.54167 4.20833C3.77778 3.20833 4.36806 2.25694 5.3125 1.35417C6.25694 0.451389 7.26389 0 8.33333 0C8.79167 0 9.18403 0.163194 9.51042 0.489583C9.83681 0.815972 10 1.20833 10 1.66667V6.70833L11.3333 5.41667L12.5 6.58333L9.16667 9.91667L5.83333 6.58333L7 5.41667L8.33333 6.70833V1.66667C7.27778 1.86111 6.45833 2.37153 5.875 3.19792C5.29167 4.02431 5 4.875 5 5.75H4.58333C3.77778 5.75 3.09028 6.03472 2.52083 6.60417C1.95139 7.17361 1.66667 7.86111 1.66667 8.66667C1.66667 9.47222 1.95139 10.1597 2.52083 10.7292C3.09028 11.2986 3.77778 11.5833 4.58333 11.5833H14.5833C15.1667 11.5833 15.6597 11.3819 16.0625 10.9792C16.4653 10.5764 16.6667 10.0833 16.6667 9.5C16.6667 8.91667 16.4653 8.42361 16.0625 8.02083C15.6597 7.61806 15.1667 7.41667 14.5833 7.41667H13.3333V5.75C13.3333 5.08333 13.1806 4.46181 12.875 3.88542C12.5694 3.30903 12.1667 2.81944 11.6667 2.41667V0.479167C12.6944 0.965278 13.5069 1.68403 14.1042 2.63542C14.7014 3.58681 15 4.625 15 5.75V5.75V5.75C15.9583 5.86111 16.7535 6.27431 17.3854 6.98958C18.0174 7.70486 18.3333 8.54167 18.3333 9.5C18.3333 10.5417 17.9688 11.4271 17.2396 12.1562C16.5104 12.8854 15.625 13.25 14.5833 13.25H4.58333V13.25M9.16667 5.79167V5.79167V5.79167V5.79167V5.79167V5.79167V5.79167V5.79167V5.79167V5.79167V5.79167V5.79167V5.79167V5.79167V5.79167V5.79167V5.79167V5.79167V5.79167V5.79167V5.79167V5.79167V5.79167V5.79167V5.79167" fill="var(--fill-0, #334155)"/>
</g>
</svg>
