<svg preserveAspectRatio="none" width="100%" height="100%" overflow="visible" style="display: block;" viewBox="0 0 18.3333 15" fill="none" xmlns="http://www.w3.org/2000/svg">
<g id="Container">
<path id="Icon" d="M9.16667 15L3.33333 11.8333V6.83333L0 5L9.16667 0L18.3333 5V11.6667H16.6667V5.91667L15 6.83333V11.8333L9.16667 15V15M9.16667 8.08333L14.875 5L9.16667 1.91667L3.45833 5L9.16667 8.08333V8.08333M9.16667 13.1042L13.3333 10.8542V7.70833L9.16667 10L5 7.70833V10.8542L9.16667 13.1042V13.1042M9.16667 8.08333V8.08333V8.08333V8.08333V8.08333V8.08333M9.16667 9.95833V9.95833V9.95833V9.95833V9.95833V9.95833V9.95833V9.95833V9.95833V9.95833M9.16667 9.95833V9.95833V9.95833V9.95833V9.95833V9.95833V9.95833V9.95833V9.95833V9.95833" fill="var(--fill-0, #4C739A)"/>
</g>
</svg>
