<svg preserveAspectRatio="none" width="100%" height="100%" overflow="visible" style="display: block;" viewBox="0 0 34 35" fill="none" xmlns="http://www.w3.org/2000/svg">
<g id="Background">
<rect width="34" height="35" rx="8" fill="var(--fill-0, #ECFDF5)"/>
<path id="Icon" d="M12.5 11C12.0833 11 11.7292 11.1458 11.4375 11.4375C11.1458 11.7292 11 12.0833 11 12.5C11 12.9167 11.1458 13.2708 11.4375 13.5625C11.7292 13.8542 12.0833 14 12.5 14C12.9167 14 13.2708 13.8542 13.5625 13.5625C13.8542 13.2708 14 12.9167 14 12.5C14 12.0833 13.8542 11.7292 13.5625 11.4375C13.2708 11.1458 12.9167 11 12.5 11V11M12.5 21C12.0833 21 11.7292 21.1458 11.4375 21.4375C11.1458 21.7292 11 22.0833 11 22.5C11 22.9167 11.1458 23.2708 11.4375 23.5625C11.7292 23.8542 12.0833 24 12.5 24C12.9167 24 13.2708 23.8542 13.5625 23.5625C13.8542 23.2708 14 22.9167 14 22.5C14 22.0833 13.8542 21.7292 13.5625 21.4375C13.2708 21.1458 12.9167 21 12.5 21V21M9 8H25C25.2833 8 25.5208 8.09583 25.7125 8.2875C25.9042 8.47917 26 8.71667 26 9V16C26 16.2833 25.9042 16.5208 25.7125 16.7125C25.5208 16.9042 25.2833 17 25 17H9C8.71667 17 8.47917 16.9042 8.2875 16.7125C8.09583 16.5208 8 16.2833 8 16V9C8 8.71667 8.09583 8.47917 8.2875 8.2875C8.47917 8.09583 8.71667 8 9 8V8M10 10V15H24V10H10V10M9 18H25C25.2833 18 25.5208 18.0958 25.7125 18.2875C25.9042 18.4792 26 18.7167 26 19V26C26 26.2833 25.9042 26.5208 25.7125 26.7125C25.5208 26.9042 25.2833 27 25 27H9C8.71667 27 8.47917 26.9042 8.2875 26.7125C8.09583 26.5208 8 26.2833 8 26V19C8 18.7167 8.09583 18.4792 8.2875 18.2875C8.47917 18.0958 8.71667 18 9 18V18M10 20V25H24V20H10V20M10 10V10V15V15V10V10M10 20V20V25V25V20V20" fill="var(--fill-0, #059669)"/>
</g>
</svg>
