<svg preserveAspectRatio="none" width="100%" height="100%" overflow="visible" style="display: block;" viewBox="0 0 20.1667 14.6667" fill="none" xmlns="http://www.w3.org/2000/svg">
<g id="Container">
<path id="Icon" d="M11.9167 8.25C11.1528 8.25 10.5035 7.98264 9.96875 7.44792C9.43403 6.91319 9.16667 6.26389 9.16667 5.5C9.16667 4.73611 9.43403 4.08681 9.96875 3.55208C10.5035 3.01736 11.1528 2.75 11.9167 2.75C12.6806 2.75 13.3299 3.01736 13.8646 3.55208C14.3993 4.08681 14.6667 4.73611 14.6667 5.5C14.6667 6.26389 14.3993 6.91319 13.8646 7.44792C13.3299 7.98264 12.6806 8.25 11.9167 8.25V8.25M5.5 11C4.99583 11 4.56424 10.8205 4.20521 10.4615C3.84618 10.1024 3.66667 9.67083 3.66667 9.16667V1.83333C3.66667 1.32917 3.84618 0.897569 4.20521 0.538542C4.56424 0.179514 4.99583 0 5.5 0H18.3333C18.8375 0 19.2691 0.179514 19.6281 0.538542C19.9872 0.897569 20.1667 1.32917 20.1667 1.83333V9.16667C20.1667 9.67083 19.9872 10.1024 19.6281 10.4615C19.2691 10.8205 18.8375 11 18.3333 11H5.5V11M7.33333 9.16667H16.5C16.5 8.6625 16.6795 8.2309 17.0385 7.87187C17.3976 7.51285 17.8292 7.33333 18.3333 7.33333V3.66667C17.8292 3.66667 17.3976 3.48715 17.0385 3.12812C16.6795 2.7691 16.5 2.3375 16.5 1.83333H7.33333C7.33333 2.3375 7.15382 2.7691 6.79479 3.12812C6.43576 3.48715 6.00417 3.66667 5.5 3.66667V7.33333C6.00417 7.33333 6.43576 7.51285 6.79479 7.87187C7.15382 8.2309 7.33333 8.6625 7.33333 9.16667V9.16667M17.4167 14.6667H1.83333C1.32917 14.6667 0.897569 14.4872 0.538542 14.1281C0.179514 13.7691 0 13.3375 0 12.8333V2.75H1.83333V12.8333V12.8333V12.8333H17.4167V14.6667V14.6667M5.5 9.16667V9.16667V9.16667V9.16667V1.83333V1.83333V1.83333V1.83333V1.83333V1.83333V9.16667V9.16667V9.16667V9.16667" fill="var(--fill-0, #64748B)"/>
</g>
</svg>
