<svg preserveAspectRatio="none" width="100%" height="100%" overflow="visible" style="display: block;" viewBox="0 0 13.5 13.5" fill="none" xmlns="http://www.w3.org/2000/svg">
<g id="Container">
<path id="Icon" d="M6.75 13.5C4.8625 13.5 3.26562 13.2094 1.95938 12.6281C0.653125 12.0469 0 11.3375 0 10.5V3C0 2.175 0.659375 1.46875 1.97812 0.88125C3.29688 0.29375 4.8875 0 6.75 0C8.6125 0 10.2031 0.29375 11.5219 0.88125C12.8406 1.46875 13.5 2.175 13.5 3V10.5C13.5 11.3375 12.8469 12.0469 11.5406 12.6281C10.2344 13.2094 8.6375 13.5 6.75 13.5V13.5M6.75 4.51875C7.8625 4.51875 8.98125 4.35938 10.1062 4.04063C11.2312 3.72188 11.8625 3.38125 12 3.01875C11.8625 2.65625 11.2344 2.3125 10.1156 1.9875C8.99688 1.6625 7.875 1.5 6.75 1.5C5.6125 1.5 4.49688 1.65937 3.40313 1.97812C2.30938 2.29687 1.675 2.64375 1.5 3.01875C1.675 3.39375 2.30938 3.7375 3.40313 4.05C4.49688 4.3625 5.6125 4.51875 6.75 4.51875V4.51875M6.75 8.25C7.275 8.25 7.78125 8.225 8.26875 8.175C8.75625 8.125 9.22187 8.05312 9.66562 7.95937C10.1094 7.86562 10.5281 7.75 10.9219 7.6125C11.3156 7.475 11.675 7.31875 12 7.14375V4.89375C11.675 5.06875 11.3156 5.225 10.9219 5.3625C10.5281 5.5 10.1094 5.61562 9.66562 5.70937C9.22187 5.80312 8.75625 5.875 8.26875 5.925C7.78125 5.975 7.275 6 6.75 6C6.225 6 5.7125 5.975 5.2125 5.925C4.7125 5.875 4.24062 5.80312 3.79688 5.70937C3.35313 5.61562 2.9375 5.5 2.55 5.3625C2.1625 5.225 1.8125 5.06875 1.5 4.89375V7.14375C1.8125 7.31875 2.1625 7.475 2.55 7.6125C2.9375 7.75 3.35313 7.86562 3.79688 7.95937C4.24062 8.05312 4.7125 8.125 5.2125 8.175C5.7125 8.225 6.225 8.25 6.75 8.25V8.25M6.75 12C7.325 12 7.90938 11.9562 8.50313 11.8687C9.09688 11.7812 9.64375 11.6656 10.1438 11.5219C10.6438 11.3781 11.0625 11.2156 11.4 11.0344C11.7375 10.8531 11.9375 10.6687 12 10.4812V8.64375C11.675 8.81875 11.3156 8.975 10.9219 9.1125C10.5281 9.25 10.1094 9.36563 9.66562 9.45938C9.22187 9.55313 8.75625 9.625 8.26875 9.675C7.78125 9.725 7.275 9.75 6.75 9.75C6.225 9.75 5.7125 9.725 5.2125 9.675C4.7125 9.625 4.24062 9.55313 3.79688 9.45938C3.35313 9.36563 2.9375 9.25 2.55 9.1125C2.1625 8.975 1.8125 8.81875 1.5 8.64375V10.5C1.5625 10.6875 1.75938 10.8687 2.09063 11.0437C2.42188 11.2187 2.8375 11.3781 3.3375 11.5219C3.8375 11.6656 4.3875 11.7812 4.9875 11.8687C5.5875 11.9562 6.175 12 6.75 12V12" fill="var(--fill-0, #94A3B8)"/>
</g>
</svg>
