<svg preserveAspectRatio="none" width="100%" height="100%" overflow="visible" style="display: block;" viewBox="0 0 24 24" fill="none" xmlns="http://www.w3.org/2000/svg">
<g id="Container">
<path id="Icon" d="M6.66667 20H8.66667V17.3333H11.3333V15.3333H8.66667V12.6667H6.66667V15.3333H4V17.3333H6.66667V20V20M13.3333 19H20V17H13.3333V19V19M13.3333 15.6667H20V13.6667H13.3333V15.6667V15.6667M14.8 10.6L16.6667 8.73333L18.5333 10.6L19.9333 9.2L18.0667 7.26667L19.9333 5.4L18.5333 4L16.6667 5.86667L14.8 4L13.4 5.4L15.2667 7.26667L13.4 9.2L14.8 10.6V10.6M4.33333 8.26667H11V6.26667H4.33333V8.26667V8.26667M2.66667 24C1.93333 24 1.30556 23.7389 0.783333 23.2167C0.261111 22.6944 0 22.0667 0 21.3333V2.66667C0 1.93333 0.261111 1.30556 0.783333 0.783333C1.30556 0.261111 1.93333 0 2.66667 0H21.3333C22.0667 0 22.6944 0.261111 23.2167 0.783333C23.7389 1.30556 24 1.93333 24 2.66667V21.3333C24 22.0667 23.7389 22.6944 23.2167 23.2167C22.6944 23.7389 22.0667 24 21.3333 24H2.66667V24M2.66667 21.3333H21.3333V21.3333V21.3333V2.66667V2.66667V2.66667H2.66667V2.66667V2.66667V21.3333V21.3333V21.3333V21.3333M2.66667 2.66667V2.66667V2.66667V2.66667V21.3333V21.3333V21.3333V21.3333V21.3333V21.3333V2.66667V2.66667V2.66667V2.66667" fill="var(--fill-0, #EA580C)"/>
</g>
</svg>
