<svg preserveAspectRatio="none" width="100%" height="100%" overflow="visible" style="display: block;" viewBox="0 0 13.5428 13.5" fill="none" xmlns="http://www.w3.org/2000/svg">
<g id="Container">
<path id="Icon" d="M1.52138 13.5C0.883879 13.5 0.430754 13.2156 0.162004 12.6469C-0.106746 12.0781 -0.0411215 11.55 0.358879 11.0625L4.52138 6V1.5H3.77138C3.55888 1.5 3.38075 1.42812 3.237 1.28437C3.09325 1.14062 3.02138 0.9625 3.02138 0.75C3.02138 0.5375 3.09325 0.359375 3.237 0.215625C3.38075 0.071875 3.55888 0 3.77138 0H9.77138C9.98388 0 10.162 0.071875 10.3058 0.215625C10.4495 0.359375 10.5214 0.5375 10.5214 0.75C10.5214 0.9625 10.4495 1.14062 10.3058 1.28437C10.162 1.42812 9.98388 1.5 9.77138 1.5H9.02138V6L13.1839 11.0625C13.5839 11.55 13.6495 12.0781 13.3808 12.6469C13.112 13.2156 12.6589 13.5 12.0214 13.5H1.52138V13.5M1.52138 12H12.0214L7.52138 6.525V1.5H6.02138V6.525L1.52138 12V12M6.77138 6.75V6.75V6.75V6.75V6.75V6.75V6.75V6.75" fill="var(--fill-0, #9333EA)"/>
</g>
</svg>
