<svg preserveAspectRatio="none" width="100%" height="100%" overflow="visible" style="display: block;" viewBox="0 0 15 15" fill="none" xmlns="http://www.w3.org/2000/svg">
<g id="Container">
<path id="Icon" d="M15 3.33333V13.3333C15 13.7917 14.8368 14.184 14.5104 14.5104C14.184 14.8368 13.7917 15 13.3333 15H1.66667C1.20833 15 0.815972 14.8368 0.489583 14.5104C0.163194 14.184 0 13.7917 0 13.3333V1.66667C0 1.20833 0.163194 0.815972 0.489583 0.489583C0.815972 0.163194 1.20833 0 1.66667 0H11.6667L15 3.33333V3.33333M13.3333 4.04167L10.9583 1.66667H1.66667V1.66667V1.66667V13.3333V13.3333V13.3333H13.3333V13.3333V13.3333V4.04167V4.04167M7.5 12.5C8.19444 12.5 8.78472 12.2569 9.27083 11.7708C9.75694 11.2847 10 10.6944 10 10C10 9.30556 9.75694 8.71528 9.27083 8.22917C8.78472 7.74306 8.19444 7.5 7.5 7.5C6.80556 7.5 6.21528 7.74306 5.72917 8.22917C5.24306 8.71528 5 9.30556 5 10C5 10.6944 5.24306 11.2847 5.72917 11.7708C6.21528 12.2569 6.80556 12.5 7.5 12.5V12.5M2.5 5.83333H10V2.5H2.5V5.83333V5.83333M1.66667 4.04167V13.3333V13.3333V13.3333V13.3333V13.3333V13.3333V1.66667V1.66667V1.66667V1.66667V4.04167V4.04167" fill="var(--fill-0, #4C739A)"/>
</g>
</svg>
