<svg preserveAspectRatio="none" width="100%" height="100%" overflow="visible" style="display: block;" viewBox="0 0 13.5 13.5" fill="none" xmlns="http://www.w3.org/2000/svg">
<g id="Container">
<path id="Icon" d="M13.5 3V12C13.5 12.4125 13.3531 12.7656 13.0594 13.0594C12.7656 13.3531 12.4125 13.5 12 13.5H1.5C1.0875 13.5 0.734375 13.3531 0.440625 13.0594C0.146875 12.7656 0 12.4125 0 12V1.5C0 1.0875 0.146875 0.734375 0.440625 0.440625C0.734375 0.146875 1.0875 0 1.5 0H10.5L13.5 3V3M12 3.6375L9.8625 1.5H1.5V1.5V1.5V12V12V12H12V12V12V3.6375V3.6375M6.75 11.25C7.375 11.25 7.90625 11.0312 8.34375 10.5938C8.78125 10.1562 9 9.625 9 9C9 8.375 8.78125 7.84375 8.34375 7.40625C7.90625 6.96875 7.375 6.75 6.75 6.75C6.125 6.75 5.59375 6.96875 5.15625 7.40625C4.71875 7.84375 4.5 8.375 4.5 9C4.5 9.625 4.71875 10.1562 5.15625 10.5938C5.59375 11.0312 6.125 11.25 6.75 11.25V11.25M2.25 5.25H9V2.25H2.25V5.25V5.25M1.5 3.6375V12V12V12V12V12V12V1.5V1.5V1.5V1.5V3.6375V3.6375" fill="var(--fill-0, white)"/>
</g>
</svg>
