<svg preserveAspectRatio="none" width="100%" height="100%" overflow="visible" style="display: block;" viewBox="0 0 14.6667 10.6667" fill="none" xmlns="http://www.w3.org/2000/svg">
<g id="Container">
<path id="Icon" d="M3.66667 10.6667C2.65556 10.6667 1.79167 10.3167 1.075 9.61667C0.358333 8.91667 0 8.06111 0 7.05C0 6.18333 0.261111 5.41111 0.783333 4.73333C1.30556 4.05556 1.98889 3.62222 2.83333 3.43333C3.11111 2.41111 3.66667 1.58333 4.5 0.95C5.33333 0.316667 6.27778 0 7.33333 0C8.63333 0 9.73611 0.452778 10.6417 1.35833C11.5472 2.26389 12 3.36667 12 4.66667V4.66667V4.66667C12.7667 4.75556 13.4028 5.08611 13.9083 5.65833C14.4139 6.23056 14.6667 6.9 14.6667 7.66667C14.6667 8.5 14.375 9.20833 13.7917 9.79167C13.2083 10.375 12.5 10.6667 11.6667 10.6667H8C7.63333 10.6667 7.31944 10.5361 7.05833 10.275C6.79722 10.0139 6.66667 9.7 6.66667 9.33333V5.9L5.6 6.93333L4.66667 6L7.33333 3.33333L10 6L9.06667 6.93333L8 5.9V9.33333V9.33333V9.33333H11.6667C12.1333 9.33333 12.5278 9.17222 12.85 8.85C13.1722 8.52778 13.3333 8.13333 13.3333 7.66667C13.3333 7.2 13.1722 6.80556 12.85 6.48333C12.5278 6.16111 12.1333 6 11.6667 6H10.6667V4.66667C10.6667 3.74444 10.3417 2.95833 9.69167 2.30833C9.04167 1.65833 8.25556 1.33333 7.33333 1.33333C6.41111 1.33333 5.625 1.65833 4.975 2.30833C4.325 2.95833 4 3.74444 4 4.66667H3.66667C3.02222 4.66667 2.47222 4.89444 2.01667 5.35C1.56111 5.80556 1.33333 6.35556 1.33333 7C1.33333 7.64444 1.56111 8.19444 2.01667 8.65C2.47222 9.10556 3.02222 9.33333 3.66667 9.33333H5.33333V10.6667H3.66667V10.6667M7.33333 6V6V6V6V6V6V6V6V6V6V6V6V6V6V6V6V6V6V6V6V6V6V6V6V6V6V6V6V6V6V6" fill="var(--fill-0, #9333EA)"/>
</g>
</svg>
