<svg preserveAspectRatio="none" width="100%" height="100%" overflow="visible" style="display: block;" viewBox="0 0 29.3333 32.6667" fill="none" xmlns="http://www.w3.org/2000/svg">
<g id="Background">
<rect width="29.3333" height="32.6667" rx="8" fill="var(--fill-0, #FFF7ED)"/>
<path id="Icon" d="M11.3333 23H18V20.5C18 19.5833 17.6736 18.7986 17.0208 18.1458C16.3681 17.4931 15.5833 17.1667 14.6667 17.1667C13.75 17.1667 12.9653 17.4931 12.3125 18.1458C11.6597 18.7986 11.3333 19.5833 11.3333 20.5V23V23M14.6667 15.5C15.5833 15.5 16.3681 15.1736 17.0208 14.5208C17.6736 13.8681 18 13.0833 18 12.1667V9.66667H11.3333V12.1667C11.3333 13.0833 11.6597 13.8681 12.3125 14.5208C12.9653 15.1736 13.75 15.5 14.6667 15.5V15.5M8 24.6667V23H9.66667V20.5C9.66667 19.6528 9.86458 18.8576 10.2604 18.1146C10.6563 17.3715 11.2083 16.7778 11.9167 16.3333C11.2083 15.8889 10.6563 15.2951 10.2604 14.5521C9.86458 13.809 9.66667 13.0139 9.66667 12.1667V9.66667H8V8H21.3333V9.66667H19.6667V12.1667C19.6667 13.0139 19.4688 13.809 19.0729 14.5521C18.6771 15.2951 18.125 15.8889 17.4167 16.3333C18.125 16.7778 18.6771 17.3715 19.0729 18.1146C19.4688 18.8576 19.6667 19.6528 19.6667 20.5V23H21.3333V24.6667H8V24.6667" fill="var(--fill-0, #EA580C)"/>
</g>
</svg>
