<svg preserveAspectRatio="none" width="100%" height="100%" overflow="visible" style="display: block;" viewBox="0 0 13.3333 13.3333" fill="none" xmlns="http://www.w3.org/2000/svg">
<g id="Container">
<path id="Icon" d="M0 13.3333V11.6667H2.29167L1.95833 11.375C1.23611 10.7361 0.729167 10.0069 0.4375 9.1875C0.145833 8.36806 0 7.54167 0 6.70833C0 5.16667 0.461806 3.79514 1.38542 2.59375C2.30903 1.39236 3.51389 0.597222 5 0.208333V1.95833C4 2.31944 3.19444 2.93403 2.58333 3.80208C1.97222 4.67014 1.66667 5.63889 1.66667 6.70833C1.66667 7.33333 1.78472 7.94097 2.02083 8.53125C2.25694 9.12153 2.625 9.66667 3.125 10.1667L3.33333 10.375V8.33333H5V13.3333H0V13.3333M8.33333 13.125V11.375C9.33333 11.0139 10.1389 10.3993 10.75 9.53125C11.3611 8.66319 11.6667 7.69444 11.6667 6.625C11.6667 6 11.5486 5.39236 11.3125 4.80208C11.0764 4.21181 10.7083 3.66667 10.2083 3.16667L10 2.95833V5H8.33333V0H13.3333V1.66667H11.0417L11.375 1.95833C12.0556 2.63889 12.5521 3.37847 12.8646 4.17708C13.1771 4.97569 13.3333 5.79167 13.3333 6.625C13.3333 8.16667 12.8715 9.53819 11.9479 10.7396C11.0243 11.941 9.81944 12.7361 8.33333 13.125V13.125" fill="var(--fill-0, #334155)"/>
</g>
</svg>
