<svg preserveAspectRatio="none" width="100%" height="100%" overflow="visible" style="display: block;" viewBox="0 0 16.6667 15" fill="none" xmlns="http://www.w3.org/2000/svg">
<g id="Container">
<path id="Icon" d="M4.58333 10H5.83333V6.66667H4.58333V7.70833H3.33333V8.95833H4.58333V10V10M6.66667 8.95833H13.3333V7.70833H6.66667V8.95833V8.95833M10.8333 6.66667H12.0833V5.625H13.3333V4.375H12.0833V3.33333H10.8333V6.66667V6.66667M3.33333 5.625H10V4.375H3.33333V5.625V5.625M5 15V13.3333H1.66667C1.20833 13.3333 0.815972 13.1701 0.489583 12.8438C0.163194 12.5174 0 12.125 0 11.6667V1.66667C0 1.20833 0.163194 0.815972 0.489583 0.489583C0.815972 0.163194 1.20833 0 1.66667 0H15C15.4583 0 15.8507 0.163194 16.1771 0.489583C16.5035 0.815972 16.6667 1.20833 16.6667 1.66667V11.6667C16.6667 12.125 16.5035 12.5174 16.1771 12.8438C15.8507 13.1701 15.4583 13.3333 15 13.3333H11.6667V15H5V15M1.66667 11.6667H15V11.6667V11.6667V1.66667V1.66667V1.66667H1.66667V1.66667V1.66667V11.6667V11.6667V11.6667V11.6667M1.66667 11.6667V11.6667V11.6667V1.66667V1.66667V1.66667V1.66667V1.66667V1.66667V11.6667V11.6667V11.6667V11.6667V11.6667" fill="var(--fill-0, #4C739A)"/>
</g>
</svg>
