<svg preserveAspectRatio="none" width="100%" height="100%" overflow="visible" style="display: block;" viewBox="0 0 28.6667 28.6667" fill="none" xmlns="http://www.w3.org/2000/svg">
<g id="Background">
<rect width="28.6667" height="28.6667" rx="8" fill="var(--fill-0, #EFF6FF)"/>
<path id="Icon" d="M17.0833 18.25L18.25 17.0833L15.1667 14V10.1667H13.5V14.6667L17.0833 18.25V18.25M14.3333 22.6667C13.1806 22.6667 12.0972 22.4479 11.0833 22.0104C10.0694 21.5729 9.1875 20.9792 8.4375 20.2292C7.6875 19.4792 7.09375 18.5972 6.65625 17.5833C6.21875 16.5694 6 15.4861 6 14.3333C6 13.1806 6.21875 12.0972 6.65625 11.0833C7.09375 10.0694 7.6875 9.1875 8.4375 8.4375C9.1875 7.6875 10.0694 7.09375 11.0833 6.65625C12.0972 6.21875 13.1806 6 14.3333 6C15.4861 6 16.5694 6.21875 17.5833 6.65625C18.5972 7.09375 19.4792 7.6875 20.2292 8.4375C20.9792 9.1875 21.5729 10.0694 22.0104 11.0833C22.4479 12.0972 22.6667 13.1806 22.6667 14.3333C22.6667 15.4861 22.4479 16.5694 22.0104 17.5833C21.5729 18.5972 20.9792 19.4792 20.2292 20.2292C19.4792 20.9792 18.5972 21.5729 17.5833 22.0104C16.5694 22.4479 15.4861 22.6667 14.3333 22.6667V22.6667M14.3333 14.3333V14.3333V14.3333V14.3333V14.3333V14.3333V14.3333V14.3333V14.3333V14.3333M14.3333 21C16.1806 21 17.7535 20.3507 19.0521 19.0521C20.3507 17.7535 21 16.1806 21 14.3333C21 12.4861 20.3507 10.9132 19.0521 9.61458C17.7535 8.31597 16.1806 7.66667 14.3333 7.66667C12.4861 7.66667 10.9132 8.31597 9.61458 9.61458C8.31597 10.9132 7.66667 12.4861 7.66667 14.3333C7.66667 16.1806 8.31597 17.7535 9.61458 19.0521C10.9132 20.3507 12.4861 21 14.3333 21V21" fill="var(--fill-0, #2563EB)"/>
</g>
</svg>
