<svg preserveAspectRatio="none" width="100%" height="100%" overflow="visible" style="display: block;" viewBox="0 0 10.6667 12" fill="none" xmlns="http://www.w3.org/2000/svg">
<g id="Container">
<path id="Icon" d="M2 12C1.63333 12 1.31944 11.8694 1.05833 11.6083C0.797222 11.3472 0.666667 11.0333 0.666667 10.6667V2H0V0.666667H3.33333V0H7.33333V0.666667H10.6667V2H10V10.6667C10 11.0333 9.86944 11.3472 9.60833 11.6083C9.34722 11.8694 9.03333 12 8.66667 12H2V12M8.66667 2H2V10.6667V10.6667V10.6667H8.66667V10.6667V10.6667V2V2M3.33333 9.33333H4.66667V3.33333H3.33333V9.33333V9.33333M6 9.33333H7.33333V3.33333H6V9.33333V9.33333M2 2V2V10.6667V10.6667V10.6667V10.6667V10.6667V10.6667V2V2" fill="var(--fill-0, #DC2626)"/>
</g>
</svg>
