<svg preserveAspectRatio="none" width="100%" height="100%" overflow="visible" style="display: block;" viewBox="0 0 18 18" fill="none" xmlns="http://www.w3.org/2000/svg">
<g id="Container">
<path id="Icon" d="M10 18V16H12V18H10V18M8 16V11H10V16H8V16M16 13V9H18V13H16V13M14 9V7H16V9H14V9M2 11V9H4V11H2V11M0 9V7H2V9H0V9M9 2V0H11V2H9V2M1.5 4.5H4.5V1.5H1.5V4.5V4.5M0 6V0H6V6H0V6M1.5 16.5H4.5V13.5H1.5V16.5V16.5M0 18V12H6V18H0V18M13.5 4.5H16.5V1.5H13.5V4.5V4.5M12 6V0H18V6H12V6M14 18V15H12V13H16V16H18V18H14V18M10 11V9H14V11H10V11M6 11V9H4V7H10V9H8V11H6V11M7 6V2H9V4H11V6H7V6M2.25 3.75V2.25H3.75V3.75H2.25V3.75M2.25 15.75V14.25H3.75V15.75H2.25V15.75M14.25 3.75V2.25H15.75V3.75H14.25V3.75" fill="var(--fill-0, #94A3B8)"/>
</g>
</svg>
