<svg preserveAspectRatio="none" width="100%" height="100%" overflow="visible" style="display: block;" viewBox="0 0 16.5 13.5" fill="none" xmlns="http://www.w3.org/2000/svg">
<g id="Container">
<path id="Icon" d="M0 13.5V12H16.5V13.5H0V13.5M2.25 11.25C1.8375 11.25 1.48437 11.1031 1.19062 10.8094C0.896875 10.5156 0.75 10.1625 0.75 9.75V1.5C0.75 1.0875 0.896875 0.734375 1.19062 0.440625C1.48437 0.146875 1.8375 0 2.25 0H14.25C14.6625 0 15.0156 0.146875 15.3094 0.440625C15.6031 0.734375 15.75 1.0875 15.75 1.5V9.75C15.75 10.1625 15.6031 10.5156 15.3094 10.8094C15.0156 11.1031 14.6625 11.25 14.25 11.25H2.25V11.25M2.25 9.75H14.25V9.75V9.75V1.5V1.5V1.5H2.25V1.5V1.5V9.75V9.75V9.75V9.75M2.25 9.75V9.75V9.75V1.5V1.5V1.5V1.5V1.5V1.5V9.75V9.75V9.75V9.75V9.75" fill="var(--fill-0, #E11D48)"/>
</g>
</svg>
