<svg preserveAspectRatio="none" width="100%" height="100%" overflow="visible" style="display: block;" viewBox="0 0 10 10" fill="none" xmlns="http://www.w3.org/2000/svg">
<g id="Container">
<path id="Icon" d="M6.65 7.35L7.35 6.65L5.5 4.8V2.5H4.5V5.2L6.65 7.35V7.35M5 10C4.30833 10 3.65833 9.86875 3.05 9.60625C2.44167 9.34375 1.9125 8.9875 1.4625 8.5375C1.0125 8.0875 0.65625 7.55833 0.39375 6.95C0.13125 6.34167 0 5.69167 0 5C0 4.30833 0.13125 3.65833 0.39375 3.05C0.65625 2.44167 1.0125 1.9125 1.4625 1.4625C1.9125 1.0125 2.44167 0.65625 3.05 0.39375C3.65833 0.13125 4.30833 0 5 0C5.69167 0 6.34167 0.13125 6.95 0.39375C7.55833 0.65625 8.0875 1.0125 8.5375 1.4625C8.9875 1.9125 9.34375 2.44167 9.60625 3.05C9.86875 3.65833 10 4.30833 10 5C10 5.69167 9.86875 6.34167 9.60625 6.95C9.34375 7.55833 8.9875 8.0875 8.5375 8.5375C8.0875 8.9875 7.55833 9.34375 6.95 9.60625C6.34167 9.86875 5.69167 10 5 10V10M5 5V5V5V5V5V5V5V5V5V5M5 9C6.10833 9 7.05208 8.61042 7.83125 7.83125C8.61042 7.05208 9 6.10833 9 5C9 3.89167 8.61042 2.94792 7.83125 2.16875C7.05208 1.38958 6.10833 1 5 1C3.89167 1 2.94792 1.38958 2.16875 2.16875C1.38958 2.94792 1 3.89167 1 5C1 6.10833 1.38958 7.05208 2.16875 7.83125C2.94792 8.61042 3.89167 9 5 9V9" fill="var(--fill-0, #94A3B8)"/>
</g>
</svg>
