<svg preserveAspectRatio="none" width="100%" height="100%" overflow="visible" style="display: block;" viewBox="0 0 20.1667 14.6667" fill="none" xmlns="http://www.w3.org/2000/svg">
<g id="Container">
<path id="Icon" d="M0 14.6667V12.1C0 11.5806 0.133681 11.1031 0.401042 10.6677C0.668403 10.2323 1.02361 9.9 1.46667 9.67083C2.41389 9.19722 3.37639 8.84201 4.35417 8.60521C5.33194 8.3684 6.325 8.25 7.33333 8.25C8.34167 8.25 9.33472 8.3684 10.3125 8.60521C11.2903 8.84201 12.2528 9.19722 13.2 9.67083C13.6431 9.9 13.9983 10.2323 14.2656 10.6677C14.533 11.1031 14.6667 11.5806 14.6667 12.1V14.6667H0V14.6667M16.5 14.6667V11.9167C16.5 11.2444 16.3128 10.599 15.9385 9.98021C15.5642 9.36146 15.0333 8.83056 14.3458 8.3875C15.125 8.47917 15.8583 8.63576 16.5458 8.85729C17.2333 9.07882 17.875 9.35 18.4708 9.67083C19.0208 9.97639 19.441 10.3163 19.7313 10.6906C20.0215 11.0649 20.1667 11.4736 20.1667 11.9167V14.6667H16.5V14.6667M7.33333 7.33333C6.325 7.33333 5.46181 6.97431 4.74375 6.25625C4.02569 5.53819 3.66667 4.675 3.66667 3.66667C3.66667 2.65833 4.02569 1.79514 4.74375 1.07708C5.46181 0.359028 6.325 0 7.33333 0C8.34167 0 9.20486 0.359028 9.92292 1.07708C10.641 1.79514 11 2.65833 11 3.66667C11 4.675 10.641 5.53819 9.92292 6.25625C9.20486 6.97431 8.34167 7.33333 7.33333 7.33333V7.33333M16.5 3.66667C16.5 4.675 16.141 5.53819 15.4229 6.25625C14.7049 6.97431 13.8417 7.33333 12.8333 7.33333C12.6653 7.33333 12.4514 7.31424 12.1917 7.27604C11.9319 7.23785 11.7181 7.19583 11.55 7.15C11.9625 6.66111 12.2795 6.11875 12.501 5.52292C12.7226 4.92708 12.8333 4.30833 12.8333 3.66667C12.8333 3.025 12.7226 2.40625 12.501 1.81042C12.2795 1.21458 11.9625 0.672222 11.55 0.183333C11.7639 0.106944 11.9778 0.0572917 12.1917 0.034375C12.4056 0.0114583 12.6194 0 12.8333 0C13.8417 0 14.7049 0.359028 15.4229 1.07708C16.141 1.79514 16.5 2.65833 16.5 3.66667V3.66667M1.83333 12.8333H12.8333V12.1C12.8333 11.9319 12.7913 11.7792 12.7073 11.6417C12.6233 11.5042 12.5125 11.3972 12.375 11.3208C11.55 10.9083 10.7174 10.599 9.87708 10.3927C9.03681 10.1865 8.18889 10.0833 7.33333 10.0833C6.47778 10.0833 5.62986 10.1865 4.78958 10.3927C3.94931 10.599 3.11667 10.9083 2.29167 11.3208C2.15417 11.3972 2.0434 11.5042 1.95938 11.6417C1.87535 11.7792 1.83333 11.9319 1.83333 12.1V12.8333V12.8333M7.33333 5.5C7.8375 5.5 8.2691 5.32049 8.62813 4.96146C8.98715 4.60243 9.16667 4.17083 9.16667 3.66667C9.16667 3.1625 8.98715 2.7309 8.62813 2.37188C8.2691 2.01285 7.8375 1.83333 7.33333 1.83333C6.82917 1.83333 6.39757 2.01285 6.03854 2.37188C5.67951 2.7309 5.5 3.1625 5.5 3.66667C5.5 4.17083 5.67951 4.60243 6.03854 4.96146C6.39757 5.32049 6.82917 5.5 7.33333 5.5V5.5M7.33333 12.8333V12.8333V12.8333V12.8333V12.8333V12.8333V12.8333V12.8333V12.8333V12.8333V12.8333V12.8333V12.8333M7.33333 3.66667V3.66667V3.66667V3.66667V3.66667V3.66667V3.66667V3.66667V3.66667V3.66667" fill="var(--fill-0, #64748B)"/>
</g>
</svg>
