<svg preserveAspectRatio="none" width="100%" height="100%" overflow="visible" style="display: block;" viewBox="0 0 18.425 18.3333" fill="none" xmlns="http://www.w3.org/2000/svg">
<g id="Container">
<path id="Icon" d="M6.69167 18.3333L6.325 15.4C6.12639 15.3236 5.93924 15.2319 5.76354 15.125C5.58785 15.0181 5.41597 14.9035 5.24792 14.7812L2.52083 15.9271L0 11.5729L2.36042 9.78542C2.34514 9.67847 2.3375 9.57535 2.3375 9.47604C2.3375 9.37674 2.3375 9.27361 2.3375 9.16667C2.3375 9.05972 2.3375 8.9566 2.3375 8.85729C2.3375 8.75799 2.34514 8.65486 2.36042 8.54792L0 6.76042L2.52083 2.40625L5.24792 3.55208C5.41597 3.42986 5.59167 3.31528 5.775 3.20833C5.95833 3.10139 6.14167 3.00972 6.325 2.93333L6.69167 0H11.7333L12.1 2.93333C12.2986 3.00972 12.4858 3.10139 12.6615 3.20833C12.8372 3.31528 13.009 3.42986 13.1771 3.55208L15.9042 2.40625L18.425 6.76042L16.0646 8.54792C16.0799 8.65486 16.0875 8.75799 16.0875 8.85729C16.0875 8.9566 16.0875 9.05972 16.0875 9.16667C16.0875 9.27361 16.0875 9.37674 16.0875 9.47604C16.0875 9.57535 16.0722 9.67847 16.0417 9.78542L18.4021 11.5729L15.8813 15.9271L13.1771 14.7812C13.009 14.9035 12.8333 15.0181 12.65 15.125C12.4667 15.2319 12.2833 15.3236 12.1 15.4L11.7333 18.3333H6.69167V18.3333M8.29583 16.5H10.1062L10.4271 14.0708C10.9007 13.9486 11.3399 13.7691 11.7448 13.5323C12.1497 13.2955 12.5201 13.009 12.8562 12.6729L15.125 13.6125L16.0187 12.0542L14.0479 10.5646C14.1243 10.3507 14.1778 10.1253 14.2083 9.88854C14.2389 9.65174 14.2542 9.41111 14.2542 9.16667C14.2542 8.92222 14.2389 8.6816 14.2083 8.44479C14.1778 8.20799 14.1243 7.98264 14.0479 7.76875L16.0187 6.27917L15.125 4.72083L12.8562 5.68333C12.5201 5.33194 12.1497 5.03785 11.7448 4.80104C11.3399 4.56424 10.9007 4.38472 10.4271 4.2625L10.1292 1.83333H8.31875L7.99792 4.2625C7.52431 4.38472 7.08507 4.56424 6.68021 4.80104C6.27535 5.03785 5.90486 5.32431 5.56875 5.66042L3.3 4.72083L2.40625 6.27917L4.37708 7.74583C4.30069 7.975 4.24722 8.20417 4.21667 8.43333C4.18611 8.6625 4.17083 8.90694 4.17083 9.16667C4.17083 9.41111 4.18611 9.64792 4.21667 9.87708C4.24722 10.1063 4.30069 10.3354 4.37708 10.5646L2.40625 12.0542L3.3 13.6125L5.56875 12.65C5.90486 13.0014 6.27535 13.2955 6.68021 13.5323C7.08507 13.7691 7.52431 13.9486 7.99792 14.0708L8.29583 16.5V16.5M9.25833 12.375C10.1444 12.375 10.9007 12.0618 11.5271 11.4354C12.1535 10.809 12.4667 10.0528 12.4667 9.16667C12.4667 8.28056 12.1535 7.52431 11.5271 6.89792C10.9007 6.27153 10.1444 5.95833 9.25833 5.95833C8.35694 5.95833 7.59688 6.27153 6.97813 6.89792C6.35938 7.52431 6.05 8.28056 6.05 9.16667C6.05 10.0528 6.35938 10.809 6.97813 11.4354C7.59688 12.0618 8.35694 12.375 9.25833 12.375V12.375M9.2125 9.16667V9.16667V9.16667V9.16667V9.16667V9.16667V9.16667V9.16667V9.16667V9.16667V9.16667V9.16667V9.16667V9.16667V9.16667V9.16667V9.16667V9.16667V9.16667V9.16667V9.16667V9.16667V9.16667V9.16667V9.16667V9.16667V9.16667V9.16667V9.16667V9.16667V9.16667V9.16667V9.16667V9.16667V9.16667V9.16667" fill="var(--fill-0, #64748B)"/>
</g>
</svg>
