<svg preserveAspectRatio="none" width="100%" height="100%" overflow="visible" style="display: block;" viewBox="0 0 16.5 16.5" fill="none" xmlns="http://www.w3.org/2000/svg">
<g id="Container">
<path id="Icon" d="M9.16667 5.5V0H16.5V5.5H9.16667V5.5M0 9.16667V0H7.33333V9.16667H0V9.16667M9.16667 16.5V7.33333H16.5V16.5H9.16667V16.5M0 16.5V11H7.33333V16.5H0V16.5M1.83333 7.33333H5.5V1.83333H1.83333V7.33333V7.33333M11 14.6667H14.6667V9.16667H11V14.6667V14.6667M11 3.66667H14.6667V1.83333H11V3.66667V3.66667M1.83333 14.6667H5.5V12.8333H1.83333V14.6667V14.6667M5.5 7.33333V7.33333V7.33333V7.33333V7.33333V7.33333M11 3.66667V3.66667V3.66667V3.66667V3.66667V3.66667M11 9.16667V9.16667V9.16667V9.16667V9.16667V9.16667M5.5 12.8333V12.8333V12.8333V12.8333V12.8333V12.8333" fill="var(--fill-0, #64748B)"/>
</g>
</svg>
