<svg preserveAspectRatio="none" width="100%" height="100%" overflow="visible" style="display: block;" viewBox="0 0 32.6667 31" fill="none" xmlns="http://www.w3.org/2000/svg">
<g id="Background">
<rect width="32.6667" height="31" rx="8" fill="var(--fill-0, #FAF5FF)"/>
<path id="Icon" d="M18.8333 23V20.5H15.5V12.1667H13.8333V14.6667H8V8H13.8333V10.5H18.8333V8H24.6667V14.6667H18.8333V12.1667H17.1667V18.8333H18.8333V16.3333H24.6667V23H18.8333V23M9.66667 9.66667V9.66667V13V13V9.66667V9.66667M20.5 18V18V21.3333V21.3333V18V18M20.5 9.66667V9.66667V13V13V9.66667V9.66667M20.5 13H23V9.66667H20.5V13V13M20.5 21.3333H23V18H20.5V21.3333V21.3333M9.66667 13H12.1667V9.66667H9.66667V13V13" fill="var(--fill-0, #9333EA)"/>
</g>
</svg>
