<svg preserveAspectRatio="none" width="100%" height="100%" overflow="visible" style="display: block;" viewBox="0 0 27.8333 29.5" fill="none" xmlns="http://www.w3.org/2000/svg">
<g id="Background">
<rect width="27.8333" height="29.5" rx="8" fill="var(--fill-0, #FEF2F2)"/>
<path id="Icon" d="M17.6667 23.5C16.5139 23.5 15.5312 23.0938 14.7188 22.2812C13.9062 21.4688 13.5 20.4861 13.5 19.3333C13.5 18.1806 13.9062 17.1979 14.7188 16.3854C15.5312 15.5729 16.5139 15.1667 17.6667 15.1667C18.8194 15.1667 19.8021 15.5729 20.6146 16.3854C21.4271 17.1979 21.8333 18.1806 21.8333 19.3333C21.8333 20.4861 21.4271 21.4688 20.6146 22.2812C19.8021 23.0938 18.8194 23.5 17.6667 23.5V23.5M19.0625 21.3125L19.6458 20.7292L18.0833 19.1667V16.8333H17.25V19.5L19.0625 21.3125V21.3125M7.66667 22.6667C7.20833 22.6667 6.81597 22.5035 6.48958 22.1771C6.16319 21.8507 6 21.4583 6 21V9.33333C6 8.875 6.16319 8.48264 6.48958 8.15625C6.81597 7.82986 7.20833 7.66667 7.66667 7.66667H11.1458C11.2986 7.18056 11.5972 6.78125 12.0417 6.46875C12.4861 6.15625 12.9722 6 13.5 6C14.0556 6 14.5521 6.15625 14.9896 6.46875C15.4271 6.78125 15.7222 7.18056 15.875 7.66667H19.3333C19.7917 7.66667 20.184 7.82986 20.5104 8.15625C20.8368 8.48264 21 8.875 21 9.33333V14.5417C20.75 14.3611 20.4861 14.2083 20.2083 14.0833C19.9306 13.9583 19.6389 13.8472 19.3333 13.75V9.33333V9.33333V9.33333H17.6667V11.8333H9.33333V9.33333H7.66667V9.33333V9.33333V21V21V21H12.0833C12.1806 21.3056 12.2917 21.5972 12.4167 21.875C12.5417 22.1528 12.6944 22.4167 12.875 22.6667H7.66667V22.6667M13.5 9.33333C13.7361 9.33333 13.934 9.25347 14.0938 9.09375C14.2535 8.93403 14.3333 8.73611 14.3333 8.5C14.3333 8.26389 14.2535 8.06597 14.0938 7.90625C13.934 7.74653 13.7361 7.66667 13.5 7.66667C13.2639 7.66667 13.066 7.74653 12.9062 7.90625C12.7465 8.06597 12.6667 8.26389 12.6667 8.5C12.6667 8.73611 12.7465 8.93403 12.9062 9.09375C13.066 9.25347 13.2639 9.33333 13.5 9.33333V9.33333" fill="var(--fill-0, #DC2626)"/>
</g>
</svg>
