<svg preserveAspectRatio="none" width="100%" height="100%" overflow="visible" style="display: block;" viewBox="0 0 38 34" fill="none" xmlns="http://www.w3.org/2000/svg">
<g id="Background">
<rect width="38" height="34" rx="8" fill="var(--fill-0, #EFF6FF)"/>
<path id="Icon" d="M19 26L12 22.2V16.2L8 14L19 8L30 14V22H28V15.1L26 16.2V22.2L19 26V26M19 17.7L25.85 14L19 10.3L12.15 14L19 17.7V17.7M19 23.725L24 21.025V17.25L19 20L14 17.25V21.025L19 23.725V23.725M19 17.7V17.7V17.7V17.7V17.7V17.7M19 19.95V19.95V19.95V19.95V19.95V19.95V19.95V19.95V19.95V19.95M19 19.95V19.95V19.95V19.95V19.95V19.95V19.95V19.95V19.95V19.95" fill="var(--fill-0, #2563EB)"/>
</g>
</svg>
