<svg preserveAspectRatio="none" width="100%" height="100%" overflow="visible" style="display: block;" viewBox="0 0 32 32" fill="none" xmlns="http://www.w3.org/2000/svg">
<g id="Background">
<rect width="32" height="32" rx="8" fill="var(--fill-0, #FAF5FF)"/>
<path id="Icon" d="M16 16C14.9 16 13.9583 15.6083 13.175 14.825C12.3917 14.0417 12 13.1 12 12C12 10.9 12.3917 9.95833 13.175 9.175C13.9583 8.39167 14.9 8 16 8C17.1 8 18.0417 8.39167 18.825 9.175C19.6083 9.95833 20 10.9 20 12C20 13.1 19.6083 14.0417 18.825 14.825C18.0417 15.6083 17.1 16 16 16V16M8 24V21.2C8 20.6333 8.14167 20.1125 8.425 19.6375C8.70833 19.1625 9.1 18.8 9.6 18.55C10.6 18.05 11.6375 17.6667 12.7125 17.4C13.7875 17.1333 14.8833 17 16 17C17.1167 17 18.2125 17.1333 19.2875 17.4C20.3625 17.6667 21.4 18.05 22.4 18.55C22.9 18.8 23.2917 19.1625 23.575 19.6375C23.8583 20.1125 24 20.6333 24 21.2V24H8V24M16 14C16.55 14 17.0208 13.8042 17.4125 13.4125C17.8042 13.0208 18 12.55 18 12C18 11.45 17.8042 10.9792 17.4125 10.5875C17.0208 10.1958 16.55 10 16 10C15.45 10 14.9792 10.1958 14.5875 10.5875C14.1958 10.9792 14 11.45 14 12C14 12.55 14.1958 13.0208 14.5875 13.4125C14.9792 13.8042 15.45 14 16 14V14M20 19.7V22H22V21.2C22 21.0167 21.9583 20.85 21.875 20.7C21.7917 20.55 21.6667 20.4333 21.5 20.35C21.2667 20.2167 21.0208 20.0958 20.7625 19.9875C20.5042 19.8792 20.25 19.7833 20 19.7V19.7M14 19.175V20.5H18V19.175C17.6667 19.1083 17.3333 19.0625 17 19.0375C16.6667 19.0125 16.3333 19 16 19C15.6667 19 15.3333 19.0125 15 19.0375C14.6667 19.0625 14.3333 19.1083 14 19.175V19.175M10 22H12V19.7C11.75 19.7833 11.4958 19.8792 11.2375 19.9875C10.9792 20.0958 10.7333 20.2167 10.5 20.35C10.3333 20.4333 10.2083 20.55 10.125 20.7C10.0417 20.85 10 21.0167 10 21.2V22V22M20 22C19.6667 22 19.3333 22 19 22C18.6667 22 18.3333 22 18 22V22H14V22C13.6667 22 13.3333 22 13 22C12.6667 22 12.3333 22 12 22V22H20V22V22M16 12V12V12V12V12V12V12V12V12V12" fill="var(--fill-0, #9333EA)"/>
</g>
</svg>
