<svg preserveAspectRatio="none" width="100%" height="100%" overflow="visible" style="display: block;" viewBox="0 0 3.33333 13.3333" fill="none" xmlns="http://www.w3.org/2000/svg">
<g id="Container">
<path id="Icon" d="M1.66667 13.3333C1.20833 13.3333 0.815972 13.1701 0.489583 12.8438C0.163194 12.5174 0 12.125 0 11.6667C0 11.2083 0.163194 10.816 0.489583 10.4896C0.815972 10.1632 1.20833 10 1.66667 10C2.125 10 2.51736 10.1632 2.84375 10.4896C3.17014 10.816 3.33333 11.2083 3.33333 11.6667C3.33333 12.125 3.17014 12.5174 2.84375 12.8438C2.51736 13.1701 2.125 13.3333 1.66667 13.3333V13.3333M1.66667 8.33333C1.20833 8.33333 0.815972 8.17014 0.489583 7.84375C0.163194 7.51736 0 7.125 0 6.66667C0 6.20833 0.163194 5.81597 0.489583 5.48958C0.815972 5.16319 1.20833 5 1.66667 5C2.125 5 2.51736 5.16319 2.84375 5.48958C3.17014 5.81597 3.33333 6.20833 3.33333 6.66667C3.33333 7.125 3.17014 7.51736 2.84375 7.84375C2.51736 8.17014 2.125 8.33333 1.66667 8.33333V8.33333M1.66667 3.33333C1.20833 3.33333 0.815972 3.17014 0.489583 2.84375C0.163194 2.51736 0 2.125 0 1.66667C0 1.20833 0.163194 0.815972 0.489583 0.489583C0.815972 0.163194 1.20833 0 1.66667 0C2.125 0 2.51736 0.163194 2.84375 0.489583C3.17014 0.815972 3.33333 1.20833 3.33333 1.66667C3.33333 2.125 3.17014 2.51736 2.84375 2.84375C2.51736 3.17014 2.125 3.33333 1.66667 3.33333V3.33333" fill="var(--fill-0, #94A3B8)"/>
</g>
</svg>
